<?xml version="1.0" encoding="UTF-8"?>
<svg id="_图层_1" xmlns="http://www.w3.org/2000/svg" version="1.1" xmlns:xlink="http://www.w3.org/1999/xlink" viewBox="0 0 25.4500008 30.2600002">
  <!-- Generator: Adobe Illustrator 29.6.0, SVG Export Plug-In . SVG Version: 2.1.1 Build 207)  -->
  <defs>
    <style>
      .st0 {
        opacity: .05;
      }

      .st1 {
        fill: url(#_未命名的渐变_102);
      }

      .st2 {
        fill: url(#_未命名的渐变_101);
      }

      .st3 {
        opacity: .1;
      }

      .st4 {
        fill: url(#_未命名的渐变_118);
      }

      .st5 {
        fill: url(#_未命名的渐变_10);
      }

      .st6 {
        opacity: .5;
      }
    </style>
    <linearGradient id="_未命名的渐变_10" data-name="未命名的渐变 10" x1="2.2066697" y1="7.5734439" x2="23.2433134" y2="7.5734439" gradientUnits="userSpaceOnUse">
      <stop offset="0" stop-color="#fff"/>
      <stop offset=".0494983" stop-color="#f9f9f9"/>
      <stop offset=".112485" stop-color="#e9e9e9"/>
      <stop offset=".1828142" stop-color="#cfcfcf"/>
      <stop offset=".2584776" stop-color="#ababab"/>
      <stop offset=".3384247" stop-color="#7c7c7c"/>
      <stop offset=".4220345" stop-color="#434343"/>
      <stop offset=".5079365" stop-color="#000"/>
      <stop offset=".5693566" stop-color="#2f2f2f"/>
      <stop offset=".6577741" stop-color="#6d6d6d"/>
      <stop offset=".7426203" stop-color="#a1a1a1"/>
      <stop offset=".8214789" stop-color="#cacaca"/>
      <stop offset=".8930453" stop-color="#e7e7e7"/>
      <stop offset=".9548972" stop-color="#f8f8f8"/>
      <stop offset="1" stop-color="#fff"/>
    </linearGradient>
    <linearGradient id="_未命名的渐变_101" data-name="未命名的渐变 10" x1="10.2754752" y1="22.9003671" x2="10.2754752" y2="10.6022031" xlink:href="#_未命名的渐变_10"/>
    <linearGradient id="_未命名的渐变_102" data-name="未命名的渐变 10" x1="15.1745281" y1="22.9003671" x2="15.1745281" y2="10.6022031" xlink:href="#_未命名的渐变_10"/>
    <linearGradient id="_未命名的渐变_118" data-name="未命名的渐变 118" x1="12.7250004" y1="6.2917874" x2="12.7250004" y2="29.3522144" gradientUnits="userSpaceOnUse">
      <stop offset="0" stop-color="#fff" stop-opacity="0"/>
      <stop offset=".0073788" stop-color="#fff" stop-opacity=".0361914"/>
      <stop offset=".047675" stop-color="#fff" stop-opacity=".2158344"/>
      <stop offset=".093088" stop-color="#fff" stop-opacity=".385121"/>
      <stop offset=".1418968" stop-color="#fff" stop-opacity=".5331179"/>
      <stop offset=".1950243" stop-color="#fff" stop-opacity=".6603325"/>
      <stop offset=".253738" stop-color="#fff" stop-opacity=".7670065"/>
      <stop offset=".3200065" stop-color="#fff" stop-opacity=".8533345"/>
      <stop offset=".397422" stop-color="#fff" stop-opacity=".9196357"/>
      <stop offset=".4931051" stop-color="#fff" stop-opacity=".9660146"/>
      <stop offset=".6273572" stop-color="#fff" stop-opacity=".9926515"/>
      <stop offset="1" stop-color="#fff"/>
    </linearGradient>
  </defs>
  <g>
    <g class="st3">
      <path class="st5" d="M12.7250017,11.0106832c-4.745808,0-9.5945342-5.6831019-10.5183319-6.8223529l.0642884-.0521258c.919656,1.1341394,5.7457741,6.7917239,10.4540435,6.7917239,4.7083906,0,9.5344279-5.6575846,10.4540637-6.7917239l.064248.0521258c-.9237574,1.1392509-5.7723825,6.8223529-10.5183117,6.8223529Z"/>
      <g class="st6">
        <path class="st2" d="M10.7017948,22.9003671l-.0827143-.0028285c.1740758-5.1088498-.0945335-9.1246144-.8211828-12.276748l.0806535-.0185875c.7282656,3.1592454.9975618,7.1820004.8232436,12.298164Z"/>
        <path class="st1" d="M14.7482085,22.9003671c-.1743182-5.1161636.094978-9.1389186.8232436-12.298164l.0806535.0185875c-.7266493,3.1521336-.9952586,7.1678982-.8211828,12.276748l-.0827143.0028285Z"/>
      </g>
    </g>
    <g class="st0">
      <path d="M18.1717194,23.2541354c-.0284469,0-.0566514-.0005253-.0844114-.0017375-.6939191-.0299016-.7019602-.6893935-.7019602-.6960607-.0020204-.0492164-.1938755-5.1328519.7739261-9.0313941.3123909-1.258433.8403562-2.5185228,1.486554-3.5481682.5208535-.8298704,1.0590419-1.4082037,1.3392684-1.4390953.0701475-.0075764.1291426.0121829.1754901.0591163.1487807.1507808.1022311.5426534.1001704.5592811l-.000889.0073946-.0036771.0078593c-.312108.5991634-.5911223,1.1925081-.8292037,1.7635478l-.0016567.0039599c-.0389933.0936647-.0777037.1886831-.1156869.2839844l-.0207291.0526915c-.0311946.0789564-.0620256.1580744-.0922101.2374551l-.0292551.0780472c-.0267094.0711779-.0530551.1424569-.078916.2139581-.008526.0236384-.0169712.0473173-.025376.0709961l-.0082027.0231535c-.0236384.0665311-.0469132.1332237-.0697839.2000983-.0118798.0348313-.0237192.0697233-.035397.1046354-.0213756.063844-.0423471.1278293-.0629954.1919359-.0120415.037276-.0240021.0745722-.0357607.1119694-.0195977.0623489-.0387509.1248594-.0576616.1874911l-.0039599.0131729c-.0104252.034407-.0208099.0688141-.0309926.1033221-.0183046.062167-.0359627.1245361-.05354.1869658l-.0094958.0336595c-.0078795.0279014-.015759.0558028-.0234364.0838053-.0174157.0637227-.0341444.1277485-.0508327.1917743l-.0100211.0382256c-.0066672.0252749-.0133345.0505499-.0197189.0759056-.0175773.0695414-.0342656.1393859-.0509135.2092304l-.0095766.0396398c-.0047277.0193956-.0094554.0387913-.0139406.0582677-.0244466.1055042-.0474385.2094728-.0683696.3089765-.0086068.0408723-.0169712.083381-.0252547.1266777-.4161575,2.0882024-.4609291,5.0328634-.4711522,7.8699998-.0010506.1065548-.0018183,1.0826399-.0018183,1.0924994l-.0000404.0332554-.0324877.0071117c-.0173348.0037983-.3988227.0863914-.7460853.0863914ZM21.0133815,8.6188583c-.0062228,0-.0126072.0003637-.019234.001091-.4542619.050065-2.0451077,2.0671905-2.7545434,4.9249146-.9649327,3.8869452-.7735624,8.9590242-.7715421,9.0098165.0001212.0255376.0089301.588617.6228018.6150436.3004303.0130112.6669673-.054227.7767546-.0761279.0001212-.1739546.0008486-.9639629.0017779-1.0592843.0102231-2.8409348.0551563-5.7901618.4726877-7.8852739.0082836-.0434987.0168095-.0865126.0254972-.1278495.0210119-.1000693.0441251-.2045835.0686929-.3106332.0046065-.0197795.0093746-.0394782.0141831-.0591769l.0094958-.0392357c.0167287-.0702284.0334979-.1404365.051156-.2103214.0064652-.0256184.0132133-.051156.0199209-.0767138l.0099807-.0380033c.0167691-.064349.0335787-.1286981.0510752-.1927643.0077583-.0282449.0156781-.0563484.0236384-.084472l.0094554-.0335585c.0176581-.0627732.0354778-.1254655.0538633-.1879154.0101827-.0347101.0206483-.0693192.0311138-.1039283l.0040003-.0131527c.0189916-.0628944.0382256-.1257281.057904-.1883801.0118394-.037579.0238809-.0750773.0359223-.1125351.0208099-.0644097.0418622-.1286779.0633187-.1928047.0117586-.0350738.023598-.0701273.0355587-.1051203.0229515-.0671978.0463879-.1342137.0701071-.201068l.0082027-.0231333c.0084856-.0238203.0169308-.0476607.0255376-.0714406.0259417-.0718042.052449-.1434065.0792392-.2148672l.0294167-.0783907c.0302653-.0797241.0612579-.1591654.0926141-.2384855l.0208099-.0529541c.0381447-.0956447.0770168-.1910672.1166162-.2861462.239334-.5740501.5181462-1.1672736.8299714-1.7662753.0122031-.1064739.0206483-.3852053-.0777442-.4848302-.0238405-.0241637-.0528531-.0360233-.0882501-.0360233Z"/>
      <path d="M7.2783042,23.2541354c-.347303,0-.7287707-.0825931-.7461055-.0863914l-.0325079-.0071117-.0000202-.0332554c0-.0098594-.0008082-.9859446-.0018183-1.0922569-.0102433-2.8375001-.0550553-5.7822419-.4710916-7.869919-.0083442-.0435998-.0167287-.0861085-.0253153-.1269808-.0209311-.0995844-.0432765-.200664-.0683292-.3089967-.0044852-.0193552-.0091927-.0386296-.01388-.0579242l-.0096776-.0399833c-.0166479-.0698445-.0333564-.1397092-.0509135-.2092304-.0062026-.0245678-.0126476-.049075-.0190926-.073562l-.0106474-.0405894c-.0166883-.0640056-.0333969-.1280314-.0508125-.1917743-.0078391-.028649-.0159206-.0571969-.0240021-.0857449l-.0089503-.0316997c-.0175773-.0624297-.0352758-.124819-.0535602-.1869658-.0101423-.0345081-.0205472-.0689151-.0309522-.1033221l-.0039801-.0131527c-.0189107-.0626317-.0380437-.1251624-.0576818-.1875113-.0117384-.0373972-.0237394-.0747136-.0357405-.1119896-.0206483-.0641066-.04164-.1280718-.0629954-.1919157-.011698-.0348919-.0234768-.0697839-.0354172-.1046354-.0228303-.0668745-.0461454-.1335874-.0697637-.2001387l-.0038589-.0108494c-.0098594-.0277802-.0197189-.0555604-.0297198-.08328-.0258204-.071481-.0522268-.1427801-.078916-.2139379l-.0292551-.078027c-.0301845-.0794009-.0610154-.1585189-.0922303-.2374753l-.0207089-.0526915c-.0379831-.0953012-.0766734-.1903196-.1161515-.2850148-.239334-.5741107-.5183281-1.1674554-.8303755-1.7664774l-.0040408-.0117788c-.0026063-.0200826-.0491962-.4119753.0996047-.5627562.0463071-.0469536.1051405-.0668139.1755103-.0591163.2802063.0308916.8184148.6092249,1.3392482,1.4390953.646218,1.0296454,1.1741429,2.2897351,1.486554,3.5481682.9678016,3.8985422.7759465,8.9821777.7738857,9.0330508.0000404.0050105-.0079805.6645024-.7018794.694404-.02776.0012122-.0559847.0017375-.0844114.0017375ZM6.5824051,23.0935961c.1097469.0218605.476486.0892199.7767546.0761279.6156497-.0265074.622721-.5894252.622721-.6133869.002081-.052449.193431-5.124528-.7715017-9.0114732-.7094356-2.8577241-2.3002815-4.8748698-2.7545434-4.9249146-.0444685-.0048893-.0794817.0065258-.1075043.0349323-.0982308.0995036-.089927.3775683-.0777037.4847494.3117646.5989007.5905768,1.1921242.8287592,1.7634064.0408318.0980288.0796837.1934512.1178487.2891363l.0207897.0529137c.0313563.0793201.0623085.1587613.0926141.2384855l.0294167.0783907c.0267902.071481.0532976.143063.0792392.2148874.0100615.027861.0199815.0557826.0298814.0836841l.0038589.0108696c.0237394.0668745.0471354.1338703.0700869.2010478.0119808.034993.0238001.0700465.0355789.1051203.0214766.064147.0425492.1284354.0632782.1928249.0120819.037478.0241233.074956.0359425.1125351.0197189.0626519.0389327.1254655.0579444.1884003l.0039599.0131325c.0104656.0346091.0209311.0692182.0311542.1039283.0183652.0624701.0361446.1251422.0538027.1878952l.0089301.0315785c.0081421.0287904.0162842.0575808.0241839.086452.0175369.0640864.0343262.1284354.0510954.1927643l.0105868.0403672c.0065056.0247698.0130314.0495397.0193148.0743903.0176379.0698849.0344272.1400728.051156.2103012v.0000202l.0095766.0395388c.0047681.0195977.0095564.0391751.0141022.0588536.0251941.1088984.0476607.2105032.0686929.3106332.0087078.0413369.0171732.0843306.0255578.1281526.4174304,2.0946474.4623636,5.0439149.4726271,7.8852133.0009092.0951194.0016365.8851277.0017981,1.0590419Z"/>
    </g>
    <g class="st3">
      <path d="M14.9099398,29.3371308h-4.3698763c-2.2266791,0-4.0382312-1.811552-4.0382312-4.0382514v-.9515982c0-.0228707.0185269-.0413773.0413773-.0413773.0174157,0,.0323261.0107484.0384276.0260225.181834.1196468,2.7531897.2061998,6.1433441.2061998,3.3901948,0,5.9615303-.086553,6.1433643-.2061998.0061015-.0152741.0210119-.0260225.0384276-.0260225.0228707,0,.0413773.0185067.0413773.0413773v.9515982c0,2.2266993-1.811552,4.0382514-4.0382109,4.0382514ZM6.5845871,24.419732v.8791474c0,2.1810792,1.7744175,3.9554967,3.9554765,3.9554967h4.3698763c2.1810388,0,3.9554563-1.7744175,3.9554563-3.9554967v-.8791474c-.1554075.0483679-.6025172.1001299-1.8890537.1430832-1.1215928.0374578-2.6314417.0580657-4.2513609.0580657-1.6198989,0-3.1297276-.0206079-4.2513407-.0580657-1.2865365-.0429532-1.7336664-.0947153-1.8890537-.1430832Z"/>
      <g>
        <path d="M23.9187663,4.8109503c-.0141022,0-.0284065-.0033942-.041741-.010506l-.5441283-.2910961-.1058678-.2863078c-.0231939-.0626923-.0634803-.1168789-.1165354-.1567005-1.5918157-1.1952154-3.2179374-2.0863437-4.9713429-2.7243387-.0118394-.0043236-.0252143-.0071117-.0420643-.0087684l-.0093746-.0009092-.0524894-.0318614c-.0572575-.0313563-.0865934-.0992612-.0697031-.1642163l.0021416-.0082431c.0195977-.0753399.0692182-.1387596.1397698-.178561.076047-.0429128.167651-.0532168.2512542-.0283661,2.1799074.6487839,4.3237308,1.9107122,5.734763,3.3756481.0659047.0684504.0777846.1737727.028851.2561436l-.1275263.2147662c-.0164863.0277802-.0457818.0433169-.0760066.0433169ZM23.3996503,4.4512017l.5164087.2762665c.0026265.0014547.0059803.0005253.0075966-.0021012l.1275263-.2147662c.029942-.0504286.0227899-.1147777-.0173753-.1564581-1.401496-1.4551169-3.5318637-2.7088626-5.6987195-3.3537472-.0621872-.0185067-.1303548-.0108292-.1870062.0211332-.0507923.028649-.0864318.0738852-.100332.1273242l-.0021416.0082431c-.0073138.0281843.0054146.0576818.0309522.0717032l.0382256.0231535c.0197189.0024851.0366901.006445.0526915.0122839,1.7611234.6408034,3.394276,1.5357502,4.9927185,2.7359155.0657431.0493982.1157273.1165354.1444166.1941988l.0950386.2568507Z"/>
        <path d="M1.5311967,4.8109503c-.0302047,0-.0594799-.0155367-.0759864-.0433169l-.1275263-.2147662c-.0489134-.0823708-.0370335-.1876931.0288914-.2561436,1.4109918-1.4649359,3.5548152-2.7268642,5.7347428-3.3756481.0835831-.0248507.175187-.0145467.2512542.0283661.0705516.0397812.1201923.1032211.13979.1786014l.0021416.0082431c.0168702.0648946-.0124253.1327995-.0712789.1650851l-.0509135.0309522-.0093746.0009092c-.01685.0016567-.0302249.0044448-.0420643.0087482-1.7534459.6380153-3.3795878,1.5291637-4.9713631,2.7243589-.0530349.0398217-.0933213.0940082-.1165152.1567005l-.1059082.2863078-.5441283.2910961c-.0133143.0071117-.0276388.010506-.0417612.010506ZM7.1832252.9904957c-.0229919,0-.0460242.003273-.068309.0098999-2.1668355.6448846-4.2972032,1.8986303-5.6987397,3.3537472-.0401651.0416804-.0472769.1060295-.0173348.1564581l.1275263.2147662c.0015557.0026467.0048691.0035761.0075562.0021012l.5164491-.2762665.0949982-.2568507c.0287298-.0776633.0786735-.1448005.1444368-.1941988,1.5984021-1.2001653,3.2315345-2.0950919,4.9927589-2.7359357.0159812-.0058187.032912-.0097786.0526511-.0122637l.0366295-.0222444c.0271539-.0149306.0398823-.0444281.0325483-.0726326l-.0021416-.0082633c-.01388-.0533986-.0495195-.0986349-.100332-.127304-.0363668-.0205068-.0774613-.0310128-.1186972-.0310128Z"/>
      </g>
      <path d="M12.7227186,24.5770791c-1.5832897,0-3.065318-.0197593-4.1810315-.0558433-1.9759704-.0638844-2.0141758-.14971-2.0346826-.1958151l-.0035357-.0079199-.0000404-.0086876c-.0022022-.4355936-.0031922-.8777332-.004162-1.3230245-.0072128-3.2654971-.0146882-6.6421553-.4990132-8.9475888-.6929898-3.2986919-2.4592247-6.2128856-4.0955897-8.6285105-.0727538-.1074235-.0894017-.2440415-.0444887-.365446l.3071783-.8304967c.0287298-.0776633.0786937-.1448207.144457-.1941786,1.5983819-1.2001653,3.2315345-2.0950919,4.9927387-2.7359559.0639046-.0231939.1365574-.0197189.1991891.009718.681413.3202502,1.3753927.5224496,2.2118092.7535203,1.1666877.3222907,2.1225084.4620403,3.0084241.440099.8879563.0220827,1.843777-.1177881,3.0104849-.440099.8363962-.2310707,1.5303558-.4332701,2.211789-.7535203.0626721-.0294571.1352441-.0329928.1992093-.009718,1.761285.6408842,3.3943972,1.535831,4.9927589,2.7359559.0657431.0493578.1156869.1165152.1444166.1941988l.3071783.8304765c.0449332.1214045.0282853.2580225-.0444483.365446-1.6363448,2.4156249-3.4025999,5.3298186-4.0956301,8.6285105-.4842847,2.3052314-.4917601,5.6816069-.498993,8.9467807-.0009698.4455742-.0019396.8879563-.004162,1.3237923l-.0000404.0086876-.0035155.0079199c-.0202038.0454585-.0578232.1301528-1.9767381.1939563-1.1004193.0365688-2.5794978.0570959-4.1647068.0577424h-.0788554ZM6.5860822,24.290549c.2123822.1183942,2.7717368.2037754,6.1389195.2037754s5.9265575-.0853812,6.1388993-.2038158c.0021416-.4300173.0031114-.8662978.0040812-1.3056897.007233-3.2693762.0147084-6.6500752.500771-8.9636306.6959799-3.3127335,2.4672052-6.235635,4.1080756-8.6579272.0578232-.085361.0710365-.1938957.035397-.2903284l-.3071783-.8304765c-.0232344-.0627125-.0635207-.1169193-.1165354-.1567005-1.5917348-1.195175-3.2178565-2.0863235-4.9713429-2.7243589-.0433977-.0157792-.0928566-.0133143-.1356886.0068289-.6873731.3230383-1.3847269.5262681-2.2249618.7583894-1.1747894.3245536-2.1383078.4653941-3.0325474.4430488-.8920374.0222848-1.8556973-.1185154-3.0304462-.4430488-.8402753-.2321213-1.5376695-.4353511-2.224982-.7583894-.0428522-.0201432-.0922707-.022608-.1357088-.0068289-1.7534257.6380153-3.3795676,1.5291637-4.9713429,2.7243589-.0530349.0397812-.0933213.093988-.1165152.1567005l-.3071783.8304765c-.0356799.0964529-.0224464.2049876.035397.2903284,1.6408704,2.4223124,3.4121159,5.3452139,4.1080352,8.6579272.4860828,2.3137574.4935582,5.6947393.5007912,8.9643984.0009698.4391494.0019194.8751875.004061,1.3049624ZM18.8717804,24.2852152v.0000404-.0000404Z"/>
      <path d="M12.7250017,24.6219719c-2.9967867,0-5.9935129-.0754813-6.1962376-.226444-.0104858-.0077987-.0166681-.0200826-.0166681-.0331746v-.0443271c0-.0157994.0089705-.0301845.0231535-.0371346.0141426-.0069501.031033-.0052126.0435392.0044044.1565793.1211419,2.7414513.2090283,6.1462737.2090283s5.989654-.0878865,6.1461525-.2090283c.0125263-.009617.0294167-.0114353.0435594-.0044044.0141831.0069501.0231535.0213352.0231535.0371346v.0443271c0,.0130921-.0061824.025376-.0166479.0331746-.2026439.1509627-3.1995115.226444-6.196278.226444Z"/>
    </g>
  </g>
  <rect class="st4" x="2.2066874" y="6.2917874" width="21.036626" height="23.0604271"/>
  <g>
    <path class="st3" d="M13.2529063,14.0482816h-1.0558093c-.3088552,0-.5601095-.2512542-.5601095-.5601095,0-.308835.2512542-.5600893.5601095-.5600893.035397,0,.0642076-.0288106.0642076-.0642076v-.2846107c0-.2556789.2080182-.463697.463697-.463697s.463697.2080182.463697.463697v.2846107c0,.035397.0288106.0642076.0642076.0642076.3088552,0,.5601095.2512542.5601095.5600893,0,.3088552-.2512542.5601095-.5601095.5601095ZM12.7250017,12.1983222c-.2100587,0-.3809423.1708836-.3809423.3809423v.2846107c0,.0810374-.0659249.1469623-.1469623.1469623-.2632149,0-.4773548.2141399-.4773548.4773346,0,.2632149.2141399.4773548.4773548.4773548h1.0558093c.2632149,0,.4773548-.2141399.4773548-.4773548,0-.2631947-.2141399-.4773346-.4773548-.4773346-.0810374,0-.1469623-.0659249-.1469623-.1469623v-.2846107c0-.2100587-.1708836-.3809423-.3809423-.3809423Z"/>
    <path d="M13.1581304,13.7912086h-.8662574c-.1598725,0-.2899445-.130072-.2899445-.2899445s.130072-.2899445.2899445-.2899445h.8662574c.1598725,0,.2899445.130072.2899445.2899445s-.130072.2899445-.2899445.2899445ZM12.291873,13.2940744c-.1142524,0-.2071898.0929374-.2071898.2071898s.0929374.2071898.2071898.2071898h.8662574c.1142524,0,.2071898-.0929374.2071898-.2071898s-.0929374-.2071898-.2071898-.2071898h-.8662574Z"/>
  </g>
</svg>