<?xml version="1.0" encoding="UTF-8"?>
<svg id="_图层_1" data-name="图层_1" xmlns="http://www.w3.org/2000/svg" version="1.1" xmlns:xlink="http://www.w3.org/1999/xlink" viewBox="0 0 423.69 50.17">
  <!-- Generator: Adobe Illustrator 29.6.0, SVG Export Plug-In . SVG Version: 2.1.1 Build 207)  -->
  <defs>
    <style>
      .st0 {
        fill: #d0d5d9;
      }

      .st1 {
        fill: url(#_未命名的渐变_14);
      }
    </style>
    <linearGradient id="_未命名的渐变_14" data-name="未命名的渐变 14" x1="212.03" y1="6.94" x2="212.03" y2="43.2" gradientUnits="userSpaceOnUse">
      <stop offset="0" stop-color="#fff" stop-opacity="0"/>
      <stop offset=".24" stop-color="#f1f2f3" stop-opacity=".29"/>
      <stop offset=".5" stop-color="#e3e6e8" stop-opacity=".59"/>
      <stop offset=".73" stop-color="#d8dce0" stop-opacity=".81"/>
      <stop offset=".9" stop-color="#d2d7da" stop-opacity=".95"/>
      <stop offset="1" stop-color="#d0d5d9"/>
    </linearGradient>
  </defs>
  <path class="st1" d="M212.03,43.2c-69.55,0-137.65-11.98-202.43-35.6l.24-.66c64.69,23.6,132.72,35.56,202.18,35.56s137.49-11.96,202.18-35.56l.24.66c-64.77,23.62-132.88,35.6-202.43,35.6Z"/>
  <g>
    <path class="st0" d="M208.85,30.97h-.71v-12.73c0-1.81,1.04-3.39,2.7-4.14,1.67-.74,3.55-.46,4.92.74l16.42,14.44c1.16,1.02,2.75,1.26,4.17.63,1.41-.63,2.29-1.97,2.29-3.5v-12.72s.7-.01.7-.01v12.73c0,1.81-1.04,3.4-2.7,4.14-1.67.74-3.55.46-4.92-.74l-16.42-14.44c-1.16-1.01-2.75-1.26-4.17-.63-1.41.63-2.29,1.97-2.29,3.5v12.73Z"/>
    <g>
      <path class="st0" d="M290.84,30.97h-12.79c-4.71,0-8.54-3.88-8.54-8.64s3.83-8.64,8.54-8.64h12.79v.71h-12.79c-4.32,0-7.83,3.56-7.83,7.93s3.51,7.93,7.83,7.93h12.79v.71Z"/>
      <path class="st0" d="M257.68,30.97h-.71v-.56c0-9.22,7.5-16.73,16.73-16.73h17.13v.71h-17.13c-8.83,0-16.02,7.19-16.02,16.02v.56Z"/>
      <rect class="st0" x="269.8" y="21.97" width="19.33" height=".71"/>
      <rect class="st0" x="260.53" y="20.33" width="9.32" height=".71"/>
    </g>
    <path class="st0" d="M159.19,30.96h-25.97v-.68h25.97c1.49,0,2.29-1.04,2.42-2.07.13-1.03-.38-2.23-1.82-2.58l-24.2-5.93c-1.85-.45-2.51-2.05-2.35-3.33.16-1.29,1.21-2.67,3.12-2.67h25.99v.68h-25.99c-1.49,0-2.29,1.04-2.42,2.07-.13,1.03.38,2.23,1.82,2.58l24.2,5.93c1.85.45,2.51,2.05,2.35,3.33-.16,1.29-1.21,2.67-3.12,2.67Z"/>
    <g>
      <path class="st0" d="M199.68,30.96h-20.06c-4.86,0-8.81-3.88-8.81-8.66s3.95-8.66,8.81-8.66h20.06v.69h-20.06c-4.47,0-8.11,3.57-8.11,7.96s3.64,7.96,8.11,7.96h20.06v.69Z"/>
      <rect class="st0" x="171.16" y="22.05" width="24.37" height=".69"/>
    </g>
    <rect class="st0" x="247.81" y="13.68" width=".71" height="17.29"/>
  </g>
</svg>