<?xml version="1.0" encoding="UTF-8"?>
<svg id="_图层_1" xmlns="http://www.w3.org/2000/svg" version="1.1" xmlns:xlink="http://www.w3.org/1999/xlink" viewBox="0 0 25.4500008 30.2600002">
  <!-- Generator: Adobe Illustrator 29.6.0, SVG Export Plug-In . SVG Version: 2.1.1 Build 207)  -->
  <defs>
    <style>
      .st0 {
        opacity: .3;
      }

      .st1 {
        fill: #d0d5d9;
      }

      .st2 {
        fill: url(#_未命名的渐变_471);
      }

      .st3 {
        fill: url(#_未命名的渐变_472);
      }

      .st4 {
        fill: url(#_未命名的渐变_47);
      }

      .st5 {
        opacity: .5;
      }
    </style>
    <linearGradient id="_未命名的渐变_47" data-name="未命名的渐变 47" x1="-930.0464314" y1="808.1716086" x2="-908.8426885" y2="808.1716086" gradientTransform="translate(541.200548 -1095.2232604) rotate(-23.0763439)" gradientUnits="userSpaceOnUse">
      <stop offset="0" stop-color="#0c1219"/>
      <stop offset=".0580587" stop-color="#11171e"/>
      <stop offset=".1319614" stop-color="#21272d"/>
      <stop offset=".2144374" stop-color="#3b4147"/>
      <stop offset=".303147" stop-color="#5f656b"/>
      <stop offset=".396862" stop-color="#8e9398"/>
      <stop offset=".4933913" stop-color="#c6cbd0"/>
      <stop offset=".5079365" stop-color="#d0d5d9"/>
      <stop offset=".596224" stop-color="#9ca1a6"/>
      <stop offset=".6953364" stop-color="#696e74"/>
      <stop offset=".7886521" stop-color="#40464c"/>
      <stop offset=".873364" stop-color="#232930"/>
      <stop offset=".946586" stop-color="#12181f"/>
      <stop offset="1" stop-color="#0c1219"/>
    </linearGradient>
    <linearGradient id="_未命名的渐变_471" data-name="未命名的渐变 47" x1="-921.9197976" y1="823.6617357" x2="-921.9197976" y2="811.2449021" xlink:href="#_未命名的渐变_47"/>
    <linearGradient id="_未命名的渐变_472" data-name="未命名的渐变 47" x1="-916.9693297" y1="823.6617531" x2="-916.9693297" y2="811.2448977" xlink:href="#_未命名的渐变_47"/>
  </defs>
  <g>
    <path class="st4" d="M10.3839708,12.3965398c-3.9681001,0-8.3597309-2.1923266-9.388106-2.736499l.0088536-.0167276c1.3062097.6911993,8.0444765,4.0443722,12.4342775,2.1741296,4.3897732-1.8702611,6.6393802-9.0527324,7.0457766-10.4735674l.0181878.0052123c-.4068031,1.4222768-2.6588684,8.6121414-7.056534,10.4857665-.9389243.4000197-1.9852838.5616855-3.0624554.5616855Z"/>
    <g class="st5">
      <path class="st2" d="M16.2390965,23.7355966c-1.8623224-4.8201797-3.7035737-8.4488213-5.6289525-11.0932818l.0153043-.0111455c1.9263585,2.645819,3.7683675,6.2758746,5.6313184,11.0975885l-.0176702.0068389Z"/>
      <path class="st3" d="M20.0773409,22.1010278c-2.1868555-4.6837531-3.5287753-8.5268679-4.1024289-11.7489929l.0186314-.0033085c.5733763,3.2204707,1.914797,7.0620606,4.1009502,11.7442796l-.0171527.0080218Z"/>
    </g>
  </g>
  <g>
    <path class="st1" d="M17.7063713,21.9063966c-.0091863,0-.0183911-.0017559-.0271707-.0052863-.0180399-.007264-.0321613-.0211081-.0397765-.0389817l-.4109619-.9645978c-.015711-.0369115.0015156-.0797378.0384087-.0954672.036967-.0157664.0797563.0015341.0954672.0384272l.4109619.9645794c.015711.03693-.0015156.0797563-.0384087.0954672-.0091863.0039185-.0188532.0058593-.02852.0058593ZM17.295317,20.8151684c-.0070237,0-.0141584.0013863-.0210157.0043067-.0273001.0116446-.0400537.0433253-.0284276.0706254l.4109619.9645978c.0056375.0132342.0160806.023474.0294257.0288527.0133451.0053417.0279655.0052308.0411997-.0004251h0c.0273001-.0116261.0400537-.0433068.0284276-.0706254l-.4109619-.9645794c-.0087242-.0204612-.0286679-.0327527-.0496097-.0327527Z"/>
    <g>
      <path class="st1" d="M17.6515308,22.7644741c-.1338574,0-.2677703-.0257105-.3956945-.0771871-.2625025-.1056516-.4681683-.3072141-.5790692-.5675355l-2.4698747-5.7971615c-.1109194-.2603399-.1138028-.5482757-.0081512-.8107782s.3071956-.4681498.567517-.57906c.2603215-.1109009.5482942-.1138121.8107782-.0081605.2625025.1056516.4681683.3072048.5790692.5675355l2.4698747,5.7971615c.228955.537389-.0219769,1.160874-.5593658,1.3898475-.1334693.0568552-.2742395.0853383-.4150837.0853383ZM15.1813603,14.8663406c-.1383489,0-.27655.0279563-.4076718.0838226-.2556821.1089324-.4536403.3109015-.5573881.5687277-.1037663.2578077-.1009199.5406051.0080034.7962687l2.4698747,5.7971615c.1089232.2556821.3109108.4536403.5687185.5574066.2578262.1037478.5406236.1009383.7962872-.0080034l.0037152.0087057-.0037152-.0087057c.527796-.2248701.7742364-.8372281.5493847-1.3650057l-2.4698747-5.7971615c-.1089232-.2556821-.3109108-.4536403-.5687185-.5574066-.1255953-.0505523-.2571793-.07581-.3886154-.07581Z"/>
      <path class="st1" d="M17.0870266,30.0603878c-.5113827,0-1.0231535-.0982213-1.5118385-.2949041-1.0029696-.4036794-1.7887027-1.1737755-2.2124736-2.168409l-.3768506-.8845274c-.0020517-.0048057.0001848-.0103692.0049998-.0124209.0048149-.0020702.01036.0001848.0124117.0049905.0093711.0219769.1705564.0429187,1.85187-.6079959,1.0564978-.4090026,2.4671392-.987351,3.9720463-1.6285063,1.5054617-.6413771,2.9004661-1.2583375,3.9280002-1.7372447,1.6352343-.7621112,1.731829-.8929374,1.7224763-.9148773-.0020517-.0048057.0001848-.0103692.0049905-.0124209.0048612-.0020702.0103692.0001848.0124209.0049905l.3768599.8845274c.423771.994652.4348241,2.0947708.0311632,3.0977403-.4036794,1.0029696-1.1737755,1.7887027-2.168409,2.2124736l-.0037152-.0087057.0037152.0087057-4.0617467,1.7305167c-.5100149.2172919-1.0477735.3260672-1.5859203.3260672ZM13.0136168,26.7293858l.3665091.8602585c.8707202,2.0436824,3.2417637,2.9979665,5.2853907,2.1272648l4.0617467-1.7305167c.9899942-.4217747,1.756486-1.2038481,2.1582801-2.2021229.4017756-.9982748.3907594-2.0932551-.0310153-3.0832493l-.3665276-.860277c-.0484452.0648031-.324607.2552015-1.7248237.9077796-1.027719.4789811-2.4229082,1.0960524-3.9285732,1.7375034-1.505092.6412292-2.9159368,1.21967-3.9726378,1.6287466-1.4394202.5572587-1.7680197.6245386-1.8483489.614613Z"/>
      <g>
        <path class="st1" d="M21.3734771,1.6439919c-.001682,0-.003401-.0000739-.0051199-.000231l-.6088276-.0539995-.2033738-.2152587c-.0506817-.0536298-.1150412-.0912253-.1861287-.1087291-1.9560152-.4813285-3.8235315-.6659971-5.7091431-.5644395-.0155446.0008318-.0316068.0039924-.0505523.0099626l-.0020517.0006469-.0541197-.0077631c-.0523083-.0051846-.0945985-.0454324-.1024355-.0978239l-.0012569-.0084839c-.0103323-.0690451.0084285-.1389589.0528628-.1968676.0484083-.0630934.121418-.1044317.2003056-.1134239,2.2778497-.2596653,4.7641378.0634723,6.6508584.8642602.075006.0318471.1197915.1110396.1088678.1925887l-.0334921.2501186c-.0038076.0285847-.0280764.0494433-.0563931.0494433ZM20.7683646,1.5715366l.6016561.0533711c.0200916.0018114.0384087-.0126242.0410888-.0328729l.0335106-.2501186c.0097778-.0731299-.0303314-.144125-.0975189-.172645-1.8838372-.799568-4.3665764-1.1221234-6.6413209-.8628924-.0738231.0084192-.142138.0471052-.1874411.1061507-.0412551.0537962-.058722.118627-.0491661.1825522l.0012569.0084839c.0065616.0437966.041939.0774551.0860222.0818264l.0502566.0072086c.0196295-.0060441.0365788-.0092787.0531585-.0101752,1.88746-.1015483,3.7568246.0831942,5.7146697.5649756.0746363.0183633.1421935.0578256.1953705.1141078l.1984572.2100279Z"/>
        <path class="st1" d="M.5644601,10.5096344c-.0117093,0-.0235202-.0036135-.0336862-.0110624l-.2035771-.1491248c-.0663742-.0486116-.0924729-.135752-.0634723-.211904.7294879-1.9154347,2.2188412-3.9323438,3.9840144-5.395238.0611341-.0506632.1414541-.0746825.2205635-.0658936.0725292.0080773.1359645.0429649.1786152.0982582l.0052308.0067834c.0323553.0419483.0320781.1003284-.0006654.1419624l-.033529.045109c-.0174022.0095282-.030812.0189086-.0421978.0295459-1.3794875,1.289593-2.5400011,2.7643074-3.5478688,4.508391-.0366343.0633891-.0541104.1358536-.0505431.2095566l.0143617.295782-.3828208.4764951c-.0112472.0140105-.0277345.0213392-.0444251.0213392ZM4.4360579,4.693555c-.0639159,0-.126806.0223465-.1762493.0633152-1.7627611,1.4609073-3.2500166,3.4748959-3.9783954,5.387401-.0259785.0682226-.0025507.1463153.0569661.1899086l.2035771.1491248c.0164873.0120882.0393976.0090569.0521789-.0068574l.3783108-.4708946-.0140105-.2886104c-.0037429-.0773534.014602-.153413.0530569-.2199443,1.0088196-1.7457286,2.1704699-3.2218662,3.5513437-4.5127531.0121529-.0113489.0262188-.0213207.0441386-.0312741l.0293795-.0409224c.0276328-.0351464.0278639-.0839612.000804-.1190429l-.0052308-.0067834c-.0394807-.0511808-.0983322-.0834992-.165723-.0909942-.0100365-.0011183-.02011-.0016728-.0301466-.0016728Z"/>
      </g>
      <path class="st1" d="M13.0139864,26.688334c-.0197311,0-.033067-.0029758-.0396933-.0091308l-.0022365-.0031792c-.1745766-.4040491-.3541621-.8229958-.5278422-1.2281539-1.3004798-3.0338429-2.6452461-6.1709531-4.010261-8.1246949-1.9536401-2.7962562-4.7525209-4.8078882-7.2327464-6.4068856-.1014189-.0653946-.1654457-.1762123-.1712865-.2964567l-.0433715-.8935658c-.0037521-.0773257.0145927-.1533852.0530569-.219935,1.0088011-1.7457101,2.1704514-3.2218477,3.5513437-4.5127531.0439815-.0411165.1043763-.0633706.1657414-.0611526.7626935.0278084,1.4892517-.0591287,2.3597131-.175778,1.2153541-.1628857,2.1621708-.4123019,2.9796771-.7849383.8355184-.33164,1.6712863-.8416919,2.6306718-1.6053372.6871237-.5469542,1.2531436-1.010594,1.7614395-1.5800426.040867-.0458021.0987942-.0739247.158921-.0771593,1.8875709-.1016037,3.7568431.0831665,5.7146697.5649756.0746548.0183633.142212.0578164.195389.1140986l.6143727.6502861c.0826951.0875101.1182574.2104622.095153.3288952-.5649663,2.8964274-1.0530968,6.3085072-.3898353,9.6544716.4633996,2.337764,1.7942108,5.4806595,3.0812161,8.5200844.1719334.4060453.3497076.8258977.5202178,1.2318136l.0007763.0018114-.000037.0019962c-.0030498.2010264-3.5180549,1.7534732-5.594527,2.6390911-2.0308734.8661548-5.4425743,2.2715469-5.8705225,2.2716393ZM12.9885347,26.6664496c.123174.0890165,2.5937141-.8619036,5.8885439-2.2671663,3.2200826-1.3733602,5.5622548-2.4727766,5.5829009-2.6202379-.1702329-.405232-.3476929-.8243451-.5193306-1.229688-1.287375-3.0402937-2.6185744-6.1841041-3.0823436-8.5237811-.6639084-3.3491805-.1755007-6.763543.3897983-9.6617726.0219584-.1124535-.0118109-.229186-.0903103-.3122785l-.6143727-.6502861c-.0506817-.0536298-.1150412-.0912253-.1861472-.1087106-1.9559967-.4813563-3.8234206-.6659231-5.7091616-.5644488-.0551178.0029574-.1082578.028788-.1457978.0708565-.5092941.5705576-1.0759239,1.0347242-1.7637685,1.5822421-.9608827.7648468-1.7981847,1.2757766-2.6350432,1.6079434-.8188186.3732463-1.7673358.6231524-2.9845844.7862876-.8713486.1167787-1.5987294.2039006-2.36292.1759258-.0565687-.0021071-.1118066.0183726-.1521284.0560697-1.379506,1.2896115-2.5400288,2.7643259-3.5478688,4.508391-.0366435.0633984-.0541197.1358629-.0505431.2095566l.0433715.8935566c.0055358.1141633.0663372.2193805.1626362.2814666,2.4817688,1.6000047,5.2824795,3.6130138,7.2380049,6.4119686,1.3661239,1.9553129,2.7112783,5.0933472,4.0121463,8.1280589.1733751.4044557.3526372.8226631.5269181,1.2260468Z"/>
      <path class="st1" d="M15.0616243,16.5416009c-.1304195,0-.2523366-.0323831-.3529053-.0968165-.0337693-.0216072-.0436765-.0667069-.0220508-.1005317.0104617-.0163579.0266717-.0276513.0456727-.0318101.0189825-.0041403.0384641-.0006839.0548405.0098147.1468883.094081.3672115.0975189.5749289.008983.2077729-.0885174.3578773-.2497674.391776-.4208321.0078555-.0393698.0463011-.0650434.0854861-.0572618.0393883.0078555.0650619.0462272.0572434.0855416-.0437319.2208777-.2222455.4176899-.477447.5264283h0c-.1198839.0510699-.2420413.0764847-.3575446.0764847ZM14.7480334,16.3296507c-.0038815,0-.0077815.0004251-.0116446.0012754-.0140475.0030867-.0260432.0114413-.0337878.0235295-.0159882.0250266-.0086688.0584078.0163209.074396.1843358.1181095.4433635.1251332.6928166.0188532h0c.2494717-.1062801.4237894-.2979538.4663199-.512695.0057853-.0291115-.0132157-.0575021-.0423642-.063306-.0290376-.0056375-.0574282.0132711-.0632505.0423826-.0350817.1771273-.1894742.343645-.4029031.4345653-.2134288.0909572-.440517.0869278-.5925622-.0104617-.0087797-.005619-.0187607-.0085394-.0289451-.0085394Z"/>
      <path class="st1" d="M16.5411167,19.3901838c-.1137844,0-.22219-.0667439-.2695262-.1778296l-.3083416-.723758c-.0305902-.0717899-.031348-.1512874-.0021441-.223872.0292039-.0725662.0848207-.1293844.1565921-.1599561.1484409-.0632135.3205776.0060996.3838097.154485l.30836.723758c.0632135.1483855-.0060996.3205407-.154485.3837727-.0372997.0158958-.076078.0234001-.1142649.0234001ZM16.2319804,18.100295c-.0357101,0-.0719747.0070237-.1068531.0218845-.067132.028594-.1191446.081734-.1464632.1496238-.0273186.0678714-.0266162.1422304.0019962.2093625l.3083416.723758c.0591287.1387925.2202308.2035587.3589494.1444485.1387925-.0591287.2036141-.2201568.1445039-.3589309l-.30836-.723758c-.0442864-.1039327-.1457053-.1663884-.2521148-.1663884ZM16.5408579,19.2636643c-.0209788,0-.0419945-.0040479-.0620676-.0121252-.0411627-.0165612-.0733795-.048094-.0907354-.0888132l-.30836-.723758c-.035858-.0842108.0034564-.1818775.0876117-.2177355.0407376-.017356.0857819-.0177811.1270001-.0012014.0411627.0165797.0733795.048131.0907354.0888501l.30836.7237395c.017356.0407191.0177811.0858188.0012014.1269816-.0165612.0411442-.0481125.073361-.0888316.090717-.0208679.0088906-.0428817.0133451-.064914.0133451ZM16.2321467,18.2268884c-.0191859,0-.0386675.0037706-.0574097.0117555-.0745809.0317731-.1094038.1183128-.0776307.1928937l.30836.723758c.0153598.0360798.0439168.0640268.0803847.0786842.0364864.0147129.0764477.0143247.1124905-.001072.0360798-.0153783.0640268-.0439168.0787027-.0803847.0146944-.0364679.0143062-.0764107-.0010536-.112472l-.30836-.7237395c-.0238067-.0558571-.0782961-.0894231-.135484-.0894231Z"/>
      <g class="st0">
        <path class="st1" d="M22.9930928,21.1457826c-.4207951.000037-.5982366-.4029216-.6003252-.4078197-.0053602-.0112749-.5581274-1.1800599-1.1832575-2.8282511-.5769991-1.5213021-1.3354136-3.7737647-1.6717207-5.8652916-.2074217-1.2901106-.2157208-2.6667886-.0233446-3.8764405.1516016-.9532582.4225326-1.7118945.6588625-1.844874.0530476-.0298601.1063725-.0341575.158385-.0128183.1837074.0753572.2912813.4435298.2957728.4591668l.0006284.0045839c-.0529182.6813569-.077298,1.3442672-.0724368,1.9703122l-.0094266.0032623.0094635-.0000739c.0008133.1017331.0024583.206516.0049166.3114375.0002588.010896.000573.0217828.0009057.0326788l.0007024.0245923c.0024398.0932215.0051754.1775062.0083545.2576691.0007393.0191397.0016081.0382701.0024768.0573912l.0012199.026875c.0036412.0834992.0073749.1588933.0114043.2304984.0016265.0289082.003401.0578256.0051939.0867245l.0008687.0142415c.0044176.0713555.0091863.1427018.0144356.2140296.0027171.0371703.005582.0743314.0085394.1114924.0054157.0679083.0112749.1358074.0174669.203688.0036228.03949.007264.0789799.0111455.1184699.0064507.0658474.013456.1316671.0207015.1974868l.0017744.0161453c.003863.0354051.0077446.070801.0118849.1061969.0076337.0651358.0159143.1302531.0243243.1953612l.0038076.0298416c.0039555.0308674.0078924.0617441.0120882.0926208.0090754.0662726.0189086.1325266.0287788.1987807l.006155.0417727c.0037152.0254518.0074488.0509035.0114228.0763368.0108128.0689434.0220508.1353823.0356362.2150646v-.0000092c.0023659.0138811.0046578.027753.0069498.0416341.0032346.0196387.0064692.0392774.0099441.0588976.0197588.1114554.0390556.2144639.0589623.3149032.0082436.0415786.017319.0845989.0268011.1283309.4406833,2.1082083,1.5658103,4.8646972,2.6804756,7.5073556.0411997.0994042.4270795,1.0070914.430961,1.0162592l.0029758.0070052-.006192.0043991c-.0038446.0027356-.3878021.2745907-.7310774.4036609-.1058919.0398319-.2012852.0563931-.286605.0564116ZM20.2662606,6.315971c-.0277068,0-.0556908.0078832-.0836748.0236219-.1894742.106622-.4735285.7251905-.6494359,1.8313626-.1920804,1.2077204-.1837813,2.5822728.0233446,3.8704519.3360298,2.0899096,1.0939823,4.3409953,1.6706486,5.8614101.6248713,1.6475258,1.1773798,2.8157747,1.1828878,2.8273824.010129.0237513.2520039.5711398.8630126.341464.3170658-.119237.6696568-.3614816.7205419-.3970069-.0363755-.0855416-.3887447-.9145446-.4280222-1.0093094-1.114998-2.6434532-2.2405131-5.4009217-2.6815107-7.5107196-.0095005-.0437689-.0186129-.0869001-.0268565-.1285896-.0199437-.1005687-.0392589-.2036973-.0590363-.3152729-.0034934-.0197034-.0067465-.039416-.0099996-.0591194-.0022735-.0138441-.0045654-.0276883-.0069313-.0415232v-.0000092c-.0135854-.079747-.0248418-.1462506-.0356731-.2153142-.003974-.0255072-.0077076-.0510144-.0114413-.0765216l-.0061365-.0417265c-.0099072-.066328-.0197404-.132656-.0288158-.1990117-.0042142-.0309321-.0081697-.0618642-.0121067-.0927871l-.0038261-.0298139c-.00841-.065182-.0166906-.1303733-.0243428-.195583-.0041588-.0354328-.0080218-.0708842-.0119034-.1063355l-.0017744-.0161361c-.0072455-.0658936-.0142508-.1317873-.0207385-.1977086-.0038815-.0395269-.0075228-.0790539-.0111455-.1185993-.006192-.0679545-.0120512-.1359276-.0174669-.2039099-.0029574-.037198-.0058593-.074396-.0085763-.1116033-.0052493-.0714017-.0100181-.1428219-.0144356-.2142514l-.0008687-.0142415c-.0017929-.0289359-.0035858-.0578903-.0051939-.0868354-.0040294-.071679-.0077815-.1471471-.0114228-.2307202l-.0012199-.026838c-.0008687-.0191766-.0017374-.038344-.0024953-.0575114-.0031607-.0802461-.0058962-.164614-.0083545-.2579186l-.0007024-.0245276c-.0003142-.010933-.0006469-.021866-.0009057-.032799-.0024398-.1050139-.0041033-.2098985-.0049166-.3117333l-.000037-.0031884c-.0048612-.626082.0194816-1.2889184.0723629-1.9702383-.0070607-.0240193-.1143019-.3766196-.2845903-.4464687-.0192228-.0078832-.0386675-.0118202-.0582415-.0118202Z"/>
        <path class="st1" d="M12.5037497,25.5864963l-.0029943-.0070052c-.0039093-.0091493-.3912308-.916245-.434325-1.014762-1.1337587-2.634655-2.3423109-5.3556649-3.5573415-7.1337396-.0250082-.0372073-.0497576-.0735458-.0740264-.1082948-.058454-.0836378-.1211223-.1713419-.1862674-.2606542-.0118572-.0162655-.0238899-.0323646-.0359227-.0484452-.0083083-.0111086-.0166167-.0222356-.0248603-.0333997h0c-.0460609-.0622894-.0876672-.1184237-.1304287-.174669-.0160067-.0210527-.0321982-.0419021-.048399-.0627514l-.0245923-.0317362c-.0409409-.0530476-.0819096-.1060213-.123442-.158459-.0191766-.0242134-.0385381-.0482419-.0578995-.072252l-.0193799-.0240655c-.041135-.0511623-.0823624-.1022322-.1240612-.1528769-.0223003-.0270783-.0447855-.0539718-.0672799-.0808653l-.0114782-.0137332c-.0424473-.0508111-.0850795-.1014559-.1280813-.151731-.0257937-.0301466-.0517445-.0601453-.0777231-.090107-.0446654-.051495-.0895802-.1027497-.1348001-.1536902-.0247402-.0278731-.0495635-.0556908-.0744792-.083416-.0458113-.0509775-.0930366-.1028791-.1443653-.1586438l-.0041958-.0045654c-.0214316-.0233077-.0428632-.0466154-.0644242-.0697752-.0482511-.0518647-.1000419-.1067976-.1583203-.167904l-.0206553-.0216996c-.0124948-.0131418-.0249804-.0262835-.0375492-.0393421-.0557647-.0579642-.1146623-.1183128-.1800662-.1845114l-.0171342-.0174484c-.0076614-.0078093-.0153228-.0156185-.0230304-.0233816-.0744238-.0749043-.1488475-.1486812-.2212104-.2192881l.0043344-.0090107-.0066078.0067742c-.4482431-.4372916-.9432124-.8789361-1.4711471-1.3126697l-.0019408-.0021718c-.0090939-.0155261-.200093-.3481735-.1271941-.5328513.0206645-.0523268.0606905-.0877781.1189782-.1053559.2595914-.0783423.9944117.2518375,1.786919.8028581,1.0056404.6992396,1.9927419,1.6588931,2.7794547,2.7022122,1.2754162,1.6914241,2.3744999,3.7987267,3.0719282,5.2687186.755605,1.5926114,1.2156036,2.800914,1.220169,2.8129283.0023659.0055635.2443517.5933754-.3611304.882753-.3308822.1581447-.7929324.2467361-.7975533.2476048l-.0074766.0014232ZM4.8348022,13.4947363c.5279162.433752,1.0228578.875415,1.4711563,1.3127621l.0022735.0022365c.0724368.0706809.1469253.1445224.2214137.2194914.0077446.0077908.0154337.015637.0231228.0234833l.017088.0173837c.0654593.0662633.1244124.1266766.1802417.1846963.0125965.0130863.0251098.0262558.0376231.0394253l.0206368.0216719c.0583339.0611803.1101708.1161502.1584867.1680704.0215795.0231968.0430296.0465229.0644889.0698676l.0041958.0045469c.0513749.0558386.0986464.1077772.1445132.1588286.0249435.0277252.0497853.0555799.0745624.0834899.0452568.0510144.0902272.1023061.134948.153875.025997.0299617.0519848.0599974.077797.0901809.0430573.050349.0857264.1010308.1282292.1519158l.011469.0137147c.0225221.0269304.0450443.0538609.0673816.0809946.0417357.0506817.0830093.1018255.1241906.1530248l.0193707.024047c.0193892.0240655.0387876.048131.0580012.0723813.0415694.0525116.0825935.1055592.1235806.1586438l.0245646.0316992c.0162377.0209048.0324662.0418097.0485099.0628993.0428355.0563377.0844788.1125275.1305766.1748908h.0000092c.0082252.0111271.0165058.0222172.0247956.0332888.012079.0161546.0241579.0323091.036052.0486301.0652282.0894231.1279704.1772382.1864892.2609869.0243428.0348229.0491476.0712723.0741835.1084981,1.2159456,1.779424,2.4249413,4.5013765,3.559042,7.1368448.0410796.0939146.3948628.9223261.4313584,1.0078122.0608754-.0120882.4798314-.098554.7854559-.244629.5889764-.2814851.3617034-.8351765.3517408-.858595-.0046948-.0123655-.4644716-1.2201136-1.2197901-2.8120595-.6970309-1.4691416-1.7954399-3.5751689-3.0698672-5.2652806-.7855298-1.0417479-1.7710972-1.999932-2.775148-2.6980534-.9195998-.6393993-1.5624833-.8629664-1.7706351-.8002889-.0524654.0158311-.0884065.0475118-.1068346.0941826-.0682873.17295.1161225.4993961.1247266.5144417Z"/>
      </g>
      <path class="st1" d="M13.0307879,26.7301991c-.009251,0-.0168662-.0007209-.0229288-.0021811-.0029019-.0007024-.0053048-.002754-.0064785-.0054896l-.0175593-.0412182c-.001414-.003327-.0008133-.0071716.0015434-.0098887.0023566-.0027356.0060441-.0039185.009556-.0029758.2366903.0613837,3.1810916-1.118399,5.816523-2.2412155,2.6354128-1.1228165,5.5262305-2.4285826,5.6455599-2.6421963.0017744-.0031422.005009-.0052308.0087612-.0048242.0036043.0001848.0068019.0024213.0082067.0057299l.0175593.0412182c.0011645.002754.0009796.0058962-.000536.0084839-.1281645.2198426-3.0211263,1.5276419-5.6547832,2.6497006-2.5692235,1.0946107-5.4369183,2.2448567-5.8054236,2.2448567ZM13.0168329,26.7105142c.2729642.0444528,3.1963313-1.1282137,5.8119483-2.2425832,2.6154876-1.1143141,5.4860289-2.4104503,5.6433789-2.6379266l-.0091493-.0214778c-.2260716.2552385-3.058352,1.5344438-5.6441552,2.6361152-2.5704988,1.0951467-5.4363084,2.2444686-5.8048506,2.244524-.0021995,0-.0042974-.000037-.0063121-.0001294l.0091401.0214778Z"/>
      <path class="st1" d="M15.7905577,17.4371999c-.0391295,0-.0764107-.0229565-.0926947-.0611619-.0217366-.0510514.0021071-.110254.0531215-.1320091.0510699-.0216996.110254.0021071.1319906.0531215.0217551.0510329-.0020886.110254-.0531215.1320091-.0128275.0054526-.0261726.0080403-.0392959.0080403ZM15.7902989,17.2549157c-.0106465,0-.0214778.0020886-.031884.0065247-.04144.0176517-.0607922.0657273-.0431405.1071673s.0657458.0607737.1071488.0431405c.04144-.0176702.0607922-.0657458.0431405-.1071673h0c-.0132157-.0310338-.0434916-.0496651-.0752648-.0496651Z"/>
    </g>
  </g>
</svg>