<?xml version="1.0" encoding="UTF-8"?>
<svg id="_图层_1" xmlns="http://www.w3.org/2000/svg" version="1.1" xmlns:xlink="http://www.w3.org/1999/xlink" viewBox="0 0 24.35 2.92">
  <!-- Generator: Adobe Illustrator 29.6.0, SVG Export Plug-In . SVG Version: 2.1.1 Build 207)  -->
  <defs>
    <style>
      .st0 {
        fill: #d0d5d9;
      }

      .st1 {
        fill: url(#_未命名的渐变);
      }
    </style>
    <linearGradient id="_未命名的渐变" data-name="未命名的渐变" x1="12.35" y1="4.35" x2="12.35" y2="2.25" gradientTransform="translate(0 4.75) scale(1 -1)" gradientUnits="userSpaceOnUse">
      <stop offset="0" stop-color="#fff" stop-opacity="0"/>
      <stop offset=".24" stop-color="#f1f2f3" stop-opacity=".29"/>
      <stop offset=".5" stop-color="#e3e6e8" stop-opacity=".59"/>
      <stop offset=".73" stop-color="#d8dce0" stop-opacity=".81"/>
      <stop offset=".9" stop-color="#d2d7da" stop-opacity=".95"/>
      <stop offset="1" stop-color="#d0d5d9"/>
    </linearGradient>
  </defs>
  <path class="st1" d="M12.35,2.49C8.33,2.49,4.38,1.8.63.43v-.04c3.76,1.37,7.7,2.06,11.72,2.06s7.96-.69,11.71-2.06v.04c-3.74,1.37-7.68,2.06-11.71,2.06h0Z"/>
  <g>
    <path class="st0" d="M12.17,1.79h-.04v-.74c0-.1.06-.2.16-.24.1-.04.21-.03.28.04l.95.84c.07.06.16.07.24.04.08-.04.13-.11.13-.2v-.74h.04s0,.74,0,.74c0,.1-.06.2-.16.24-.1.04-.21.03-.28-.04l-.95-.84c-.07-.06-.16-.07-.24-.04-.08.04-.13.11-.13.2v.74h0Z"/>
    <g>
      <path class="st0" d="M16.92,1.79h-.74c-.27,0-.49-.22-.49-.5s.22-.5.49-.5h.74v.04h-.74c-.25,0-.45.21-.45.46s.2.46.45.46h.74v.04Z"/>
      <path class="st0" d="M15,1.79h-.04v-.03c0-.53.43-.97.97-.97h.99v.04h-.99c-.51,0-.93.42-.93.93v.03h0Z"/>
      <rect class="st0" x="15.7" y="1.26" width="1.12" height=".04"/>
      <rect class="st0" x="15.16" y="1.17" width=".54" height=".04"/>
    </g>
    <path class="st0" d="M9.29,1.78h-1.5v-.04h1.5c.09,0,.13-.06.14-.12,0-.06-.02-.13-.11-.15l-1.4-.34c-.11-.03-.15-.12-.14-.19,0-.07.07-.15.18-.15h1.5v.04h-1.5c-.09,0-.13.06-.14.12,0,.06.02.13.11.15l1.4.34c.11.03.15.12.14.19,0,.07-.07.15-.18.15Z"/>
    <g>
      <path class="st0" d="M11.64,1.78h-1.16c-.28,0-.51-.22-.51-.5s.23-.5.51-.5h1.16v.04h-1.16c-.26,0-.47.21-.47.46s.21.46.47.46h1.16v.04h0Z"/>
      <rect class="st0" x="9.99" y="1.27" width="1.41" height=".04"/>
    </g>
    <rect class="st0" x="14.42" y=".78" width=".04" height="1"/>
  </g>
</svg>