<?xml version="1.0" encoding="UTF-8"?>
<svg id="_图层_1" xmlns="http://www.w3.org/2000/svg" version="1.1" xmlns:xlink="http://www.w3.org/1999/xlink" viewBox="0 0 25.4500008 30.2600002">
  <!-- Generator: Adobe Illustrator 29.6.0, SVG Export Plug-In . SVG Version: 2.1.1 Build 207)  -->
  <defs>
    <style>
      .st0 {
        isolation: isolate;
      }

      .st0, .st1 {
        opacity: .1;
      }

      .st2 {
        fill: url(#_未命名的渐变_3);
      }

      .st3 {
        fill: url(#_未命名的渐变);
      }

      .st4 {
        opacity: .5;
      }

      .st5 {
        opacity: .05;
      }

      .st6 {
        fill: url(#_未命名的渐变_2);
      }
    </style>
    <linearGradient id="_未命名的渐变" data-name="未命名的渐变" x1="2.2066698" y1="24.4265563" x2="23.2433128" y2="24.4265563" gradientTransform="translate(0 32) scale(1 -1)" gradientUnits="userSpaceOnUse">
      <stop offset="0" stop-color="#fff"/>
      <stop offset=".0494983" stop-color="#f9f9f9"/>
      <stop offset=".112485" stop-color="#e9e9e9"/>
      <stop offset=".1828142" stop-color="#cfcfcf"/>
      <stop offset=".2584776" stop-color="#ababab"/>
      <stop offset=".3384247" stop-color="#7c7c7c"/>
      <stop offset=".4220345" stop-color="#434343"/>
      <stop offset=".5079365" stop-color="#000"/>
      <stop offset=".5693566" stop-color="#2f2f2f"/>
      <stop offset=".6577741" stop-color="#6d6d6d"/>
      <stop offset=".7426203" stop-color="#a1a1a1"/>
      <stop offset=".8214789" stop-color="#cacaca"/>
      <stop offset=".8930453" stop-color="#e7e7e7"/>
      <stop offset=".9548972" stop-color="#f8f8f8"/>
      <stop offset="1" stop-color="#fff"/>
    </linearGradient>
    <linearGradient id="_未命名的渐变_2" data-name="未命名的渐变 2" x1="10.2754747" y1="9.0996323" x2="10.2754747" y2="21.3977957" gradientTransform="translate(0 32) scale(1 -1)" gradientUnits="userSpaceOnUse">
      <stop offset="0" stop-color="#fff"/>
      <stop offset=".0494983" stop-color="#f9f9f9"/>
      <stop offset=".112485" stop-color="#e9e9e9"/>
      <stop offset=".1828142" stop-color="#cfcfcf"/>
      <stop offset=".2584776" stop-color="#ababab"/>
      <stop offset=".3384247" stop-color="#7c7c7c"/>
      <stop offset=".4220345" stop-color="#434343"/>
      <stop offset=".5079365" stop-color="#000"/>
      <stop offset=".5693566" stop-color="#2f2f2f"/>
      <stop offset=".6577741" stop-color="#6d6d6d"/>
      <stop offset=".7426203" stop-color="#a1a1a1"/>
      <stop offset=".8214789" stop-color="#cacaca"/>
      <stop offset=".8930453" stop-color="#e7e7e7"/>
      <stop offset=".9548972" stop-color="#f8f8f8"/>
      <stop offset="1" stop-color="#fff"/>
    </linearGradient>
    <linearGradient id="_未命名的渐变_3" data-name="未命名的渐变 3" x1="15.1745273" y1="9.0996323" x2="15.1745273" y2="21.3977966" gradientTransform="translate(0 32) scale(1 -1)" gradientUnits="userSpaceOnUse">
      <stop offset="0" stop-color="#fff"/>
      <stop offset=".0494983" stop-color="#f9f9f9"/>
      <stop offset=".112485" stop-color="#e9e9e9"/>
      <stop offset=".1828142" stop-color="#cfcfcf"/>
      <stop offset=".2584776" stop-color="#ababab"/>
      <stop offset=".3384247" stop-color="#7c7c7c"/>
      <stop offset=".4220345" stop-color="#434343"/>
      <stop offset=".5079365" stop-color="#000"/>
      <stop offset=".5693566" stop-color="#2f2f2f"/>
      <stop offset=".6577741" stop-color="#6d6d6d"/>
      <stop offset=".7426203" stop-color="#a1a1a1"/>
      <stop offset=".8214789" stop-color="#cacaca"/>
      <stop offset=".8930453" stop-color="#e7e7e7"/>
      <stop offset=".9548972" stop-color="#f8f8f8"/>
      <stop offset="1" stop-color="#fff"/>
    </linearGradient>
  </defs>
  <g>
    <g class="st1">
      <path class="st3" d="M12.7250013,11.0106831c-4.7458081,0-9.5945339-5.6831021-10.5183315-6.8223529l.0642884-.0521259c.919656,1.1341395,5.745774,6.7917237,10.4540431,6.7917237,4.7083902,0,9.5344286-5.6575847,10.4540644-6.7917237l.0642471.0521259c-.9237576,1.1392508-5.7723827,6.8223529-10.5183115,6.8223529Z"/>
      <g class="st4">
        <path class="st6" d="M10.7017946,22.9003677l-.0827141-.0028286c.1740761-5.1088505-.0945339-9.1246147-.8211832-12.2767477l.0806532-.0185871c.7282658,3.1592455.9975615,7.1820002.8232441,12.2981634Z"/>
        <path class="st2" d="M14.748208,22.9003677c-.1743183-5.1161633.0949783-9.1389189.8232431-12.2981644l.0806532.0185871c-.7266493,3.1521339-.9952583,7.1678982-.8211832,12.2767467,0,0-.0827141.0028286-.0827131.0028305Z"/>
      </g>
    </g>
    <g class="st5">
      <path d="M18.1717186,23.2541351c-.0284462,0-.0566521-.0005245-.0844116-.0017376-.6939182-.0299015-.7019596-.689394-.7019596-.6960602-.0020199-.0492172-.1938763-5.1328526.7739258-9.031394.3123913-1.2584333.8403568-2.5185232,1.4865532-3.5481682.520853-.8298702,1.059042-1.4082041,1.3392677-1.4390955.0701466-.007576.1291428.0121832.1754894.0591164.1487808.1507807.102232.5426531.1001701.5592813l-.0008888.0073948-.0036774.0078592c-.3121071.5991631-.5911217,1.1925077-.8292046,1.7635479l-.0016575.0039597c-.0389938.0936651-.0777035.1886835-.1156864.2839842l-.0207291.0526915c-.0311947.0789566-.0620251.1580744-.0922108.2374554l-.0292549.0780468c-.0267086.0711775-.0530548.142457-.0789165.2139578-.0085258.0236387-.0169716.0473175-.0253754.0709963l-.0082035.0231533c-.0236378.0665312-.0469131.1332235-.0697842.200098-.011879.034831-.0237198.0697231-.0353966.1046352-.0213757.0638437-.042347.1278296-.0629959.1919355-.0120411.0372763-.0240021.0745726-.0357609.111969-.019598.0623493-.0387516.1248598-.0576611.1874914l-.0039597.0131731c-.0104256.0344067-.0208092.0688143-.0309925.103322-.0183048.0621672-.0359631.1245365-.0535393.1869659l-.0094967.0336599c-.0078793.0279016-.0157585.0558023-.0234356.0838051-.017416.0637226-.0341434.1277485-.0508327.1917744l-.0100212.0382252c-.0066681.0252752-.0133343.0505495-.0197182.0759058-.0175781.069541-.0342655.1393862-.0509129.2092304l-.0095768.0396395c-.0047283.0193958-.0094547.0387917-.0139408.0582676-.0244465.105504-.0474377.2094727-.0683689.3089762-.008606.0408726-.0169716.0833807-.0252552.1266775-.4161568,2.0882025-.4609299,5.0328627-.4711514,7.8699999-.0010509.106554-.0018177,1.0826397-.0018177,1.0924988l-.0000401.0332546-.0324879.0071125c-.017334.0037975-.3988228.0863914-.7460842.0863934ZM21.013382,8.6188583c-.0062237,0-.0126076.0003633-.0192337.001091-.4542618.050065-2.0451069,2.0671902-2.7545433,4.9249153-.9649334,3.8869457-.7735615,8.9590244-.7715416,9.0098152.0001221.0255375.0089302.5886173.6228027.6150436.3004303.0130119.6669674-.0542278.7767544-.076128.0001221-.173954.0008488-.9639626.0017776-1.0592842.0102234-2.8409348.0551567-5.7901611.4726868-7.8852739.0082836-.043499.0168095-.0865126.0254974-.1278496.0210114-.100069.0441246-.2045832.0686932-.3106337.0046062-.0197792.0093746-.0394783.014183-.0591764l.0094967-.0392361c.0167294-.0702286.0334988-.1404362.0511551-.2103214.0064659-.0256186.0132141-.051156.0199203-.0767136l.0099812-.038003c.0167694-.0643492.0335789-.1286983.051075-.1927643.0077591-.028245.0156784-.0563488.0236378-.0844717l.0094547-.0335588c.0176582-.0627728.0354786-.1254654.0538635-.1879158.0101833-.0347099.020649-.0693188.0311146-.1039286l.0039997-.0131531c.0189915-.0628948.0382252-.1257277.0579033-.1883802.0118389-.0375786.02388-.0750771.035923-.1125355.0208092-.0644093.0418625-.1286783.0633183-.1928043.0117588-.0350742.0235977-.0701275.0355587-.1051207.0229511-.0671978.0463886-.1342134.0701065-.2010679l.0082035-.0231333c.0084858-.0238199.0169315-.0476608.0255375-.0714407.0259418-.071804.0524483-.1434069.0792389-.2148676l.029417-.0783911c.0302658-.0797243.0612583-.1591654.0926132-.2384853l.0208092-.0529537c.0381451-.095645.0770168-.1910667.1166153-.2861462.2393341-.5740499.5181465-1.1672735.8299713-1.7662754.0122032-.1064739.020649-.3852053-.0777435-.4848299-.02384-.0241632-.0528526-.0360231-.0882473-.0360212Z"/>
      <path d="M7.2783041,23.2541351c-.3473029,0-.7287707-.0825939-.7461057-.0863914l-.0325079-.0071125-.00002-.0332546c0-.0098591-.0008082-.9859447-.0018182-1.0922565-.0102434-2.8374996-.0550551-5.7822418-.4710917-7.8699188-.0083442-.0436001-.0167289-.0861082-.0253153-.1269808-.0209312-.0995846-.0432763-.2006636-.0683293-.3089972-.0044851-.0193548-.0091925-.0386295-.0138798-.0579243l-.0096774-.0399837c-.0166478-.0698442-.0333562-.1397095-.0509133-.2092304-.0062027-.0245676-.0126476-.0490751-.0190926-.0735617l-.0106473-.0405893c-.0166883-.0640059-.0333967-.1280317-.0508127-.1917744-.0078392-.0286493-.0159206-.0571966-.0240021-.0857449l-.0089502-.0317001c-.0175772-.0624294-.0352759-.1248188-.0535603-.1869659-.0101423-.0345078-.0205474-.0689154-.030952-.103322l-.0039802-.0131531c-.0189109-.0626316-.0380435-.1251621-.0576816-.1875114-.0117383-.0373974-.0237393-.0747137-.0357404-.11199-.0206485-.0641069-.0416398-.1280718-.0629954-.1919155-.0116978-.0348921-.0234766-.0697842-.0354171-.1046352-.0228305-.0668745-.0461454-.1335878-.0697637-.200139l-.003859-.010849c-.0098596-.0277805-.0197191-.0555601-.0297198-.0832796-.0258203-.0714808-.052227-.1427803-.0789161-.2139378l-.0292549-.0780268c-.0301843-.079401-.0610156-.1585188-.0922303-.2374754l-.020709-.0526915c-.0379829-.0953016-.0766735-.19032-.1161513-.2850151-.2393341-.574111-.5183282-1.1674557-.8303757-1.7664776l-.0040407-.0117788c-.0026064-.0200825-.0491962-.4119749.0996046-.5627565.0463071-.0469532.1051407-.0668135.1755104-.0591164.2802062.0308914.8184147.6092253,1.3392482,1.4390955.6462178,1.029645,1.1741428,2.2897348,1.4865541,3.5481682.967802,3.8985415.7759466,8.9821768.7738857,9.0330496.0000401.0050106-.0079803.6645031-.7018795.6944046-.02776.0012131-.0559845.0017376-.0844126.0017395ZM6.5824051,23.0935955c.1097469.0218601.4764862.08922.7767544.076128.6156497-.0265083.6227212-.589426.6227212-.6133862.0020809-.0524483.1934314-5.1245289-.7715015-9.0114737-.7094355-2.8577242-2.3002815-4.8748693-2.7545433-4.9249144-.0444684-.0048895-.0794816.006526-.1075044.0349321-.0982308.0995035-.0899272.3775682-.0777035.4847498.3117647.5989008.5905766,1.1921244.8287592,1.7634068.0408316.0980291.0796838.1934509.1178489.2891359l.0207896.0529137c.0313563.07932.0623083.158761.0926142.2384853l.0294166.0783911c.0267901.0714808.0532975.1430626.0792394.2148876.0100613.0278606.0199814.0557823.0298815.083684l.003859.01087c.0237393.0668745.0471354.1338701.070087.2010479.011981.0349932.0237999.0700464.0355787.1051207.0214767.064147.0425491.1284351.0632782.1928253.0120821.0374784.0241232.0749559.0359426.1125355.0197191.0626516.0389328.1254654.0579443.1884003l.0039601.0131321c.0104656.0346088.0209312.0692186.0311542.1039286.0183654.0624704.0361447.1251421.0538025.1878948l.0089302.0315781c.008142.0287905.016284.0575809.0241838.0864515.0175371.064086.0343261.1284351.0510955.1927643l.0105867.0403671c.0065055.0247698.0130315.0495396.0193148.0743904.0176377.0698853.0344272.1400728.051156.2103014v.00002l.0095768.0395384c.0047679.019598.0095563.039175.014102.0588531.0251942.1088982.0476608.2105036.0686927.3106337.008708.041337.0171733.0843306.025558.1281528.4174304,2.0946465.4623637,5.0439148.4726272,7.8852139.0009093.0951195.0016365.885128.0017977,1.0590401Z"/>
    </g>
    <g class="st1">
      <path d="M14.9099398,29.3371315h-4.3698759c-2.2266788,0-4.0382314-1.811552-4.0382314-4.0382519v-.9515991c0-.022871.018527-.041378.0413771-.041378.0174155,0,.0323262.0107479.0384278.026022.1818342.1196461,2.75319.2061996,6.1433439.2061996,3.3901958,0,5.9615307-.0865536,6.143364-.2061996.0061016-.015274.0210114-.026022.0384274-.026022.022871,0,.041378.018507.041378.041378v.9515991c0,2.2266998-1.811552,4.0382519-4.0382109,4.0382519ZM6.5845871,24.4197311v.8791466c0,2.1810799,1.7744179,3.9554977,3.9554768,3.9554977h4.3698769c2.1810398,0,3.9554558-1.7744179,3.9554558-3.9554977v-.8791466c-.155407.0483685-.6025181.1001301-1.8890533.1430836-1.1215925.0374584-2.6314411.0580654-4.2513609.0580654-1.6198988,0-3.1297274-.020607-4.2513409-.0580654-1.2865362-.0429535-1.7336664-.0947151-1.8890543-.1430836Z"/>
      <g>
        <path d="M23.918766,4.8109503c-.0141029,0-.0284061-.0033941-.0417404-.0105062l-.5441284-.2910962-.1058674-.2863078c-.0231934-.0626922-.0634804-.116879-.1165352-.1567006-1.5918159-1.1952152-3.2179375-2.0863438-4.9713421-2.7243388-.0118389-.0043236-.0252151-.0071117-.0420647-.0087684l-.0093746-.0009092-.0524902-.0318614c-.0572567-.0313563-.0865936-.0992612-.0697041-.1642163l.002142-.0082431c.019598-.0753399.0692177-.1387596.1397705-.178561.0760479-.0429128.1676502-.0532168.251255-.0283661,2.1799068.6487839,4.3237305,1.9107124,5.7347622,3.3756481.0659046.0684505.0777855.1737728.0288506.2561436l-.1275272.214766c-.0164871.0277801-.0457821.0433168-.0760059.0433173ZM23.3996506,4.4512019l.5164089.2762666c.0026264.0014548.0059795.0005255.007597-.0021014l.1275272-.214766c.0299416-.0504284.022789-.1147776-.0173759-.1564579-1.4014969-1.4551167-3.5318642-2.7088625-5.698719-3.3537471-.0621872-.0185067-.1303539-.0108292-.187006.0211332-.0507927.028649-.0864315.0738852-.1003323.1273242l-.002142.0082431c-.0073147.0281843.005415.0576818.0309525.0717032l.0382252.0231535c.0197182.0024852.0366898.0064451.0526924.0122839,1.7611237.6408033,3.3942757,1.5357502,4.9927197,2.7359154.0657425.0493984.1157265.1165352.1444168.1941986,0,0,.0950394.2568507.0950356.2568507Z"/>
        <path d="M1.5311967,4.8109503c-.0302047,0-.05948-.0155368-.0759864-.0433168l-.1275263-.214766c-.0489134-.0823708-.0370334-.1876931.0288914-.2561436,1.4109917-1.4649358,3.5548153-2.7268641,5.7347426-3.375648.0835829-.0248507.1751871-.0145467.2512541.0283661.0705514.0397812.1201925.1032211.1397901.1786014l.0021415.0082431c.01687.0648946-.0124254.1327995-.071279.1650851l-.0509133.0309522-.0093746.0009092c-.01685.0016567-.0302248.0044448-.0420642.0087482-1.7534461.6380153-3.3795879,1.5291637-4.9713631,2.7243589-.0530348.0398216-.0933213.094008-.1165152.1567006l-.1059082.2863078-.5441283.2910962c-.0133142.0071115-.0276388.0105062-.0417612.0105057ZM7.1832252.9904957c-.0229921,0-.0460243.003273-.0683088.0098999-2.1668353.6448846-4.2972031,1.8986304-5.6987395,3.3537471-.0401651.0416803-.0472769.1060295-.0173348.1564579l.1275263.214766c.0015557.0026469.0048691.0035763.0075562.0021014l.5164491-.2762666.0949981-.2568507c.0287299-.0776634.0786736-.1448007.1444368-.1941986,1.5984023-1.2001653,3.2315347-2.0950918,4.9927585-2.7359357.0159812-.0058187.0329118-.0097786.0526509-.0122637l.0366297-.0222445c.027154-.0149306.0398822-.0444281.0325484-.0726326l-.0021415-.0082633c-.0138798-.0533986-.0495195-.0986348-.1003318-.127304-.0363669-.0205069-.0774612-.0310128-.1186976-.0310128Z"/>
      </g>
      <path d="M12.7227182,24.5770798c-1.5832901,0-3.0653181-.0197601-4.1810312-.0558434-1.9759703-.0638847-2.0141759-.1497097-2.0346823-.195816l-.0035357-.0079193-.0000405-.008688c-.002202-.4355946-.0031924-.8777332-.0041618-1.3230247-.0072126-3.2654972-.014688-6.6421547-.4990129-8.9475889-.6929898-3.2986917-2.4592247-6.2128854-4.0955896-8.6285105-.0727538-.1074233-.0894017-.2440414-.0444887-.3654461l.3071783-.8304968c.0287299-.0776634.0786936-.1448207.1444571-.1941786,1.5983818-1.2001653,3.2315347-2.0950918,4.9927385-2.735956.0639048-.023194.1365576-.0197189.1991892.0097179.6814127.3202503,1.3753929.5224496,2.2118092.7535203,1.166688.3222907,2.122508.4620404,3.0084238.440099.8879566.0220828,1.8437767-.1177881,3.0104847-.440099.8363962-.2310708,1.5303564-.4332701,2.2117891-.7535203.0626717-.0294571.1352444-.0329928.1992092-.0097179,1.7612858.6408842,3.3943977,1.535831,4.9927597,2.735956.0657425.0493579.1156864.1165152.1444168.1941986l.3071785.8304768c.0449333.1214046.028286.2580223-.0444489.3654461-1.6363449,2.4156246-3.4025993,5.3298187-4.0956306,8.6285105-.4842854,2.305232-.4917603,5.6816072-.4989929,8.9467821-.0009689.4455738-.0019398.8879566-.0041618,1.3237915l-.0000401.008688-.0035152.0079193c-.0202045.0454578-.0578232.1301537-1.976738.1939564-1.100419.0365696-2.5794983.0570965-4.1647072.0577431h-.0788565ZM6.586082,24.2905483c.2123823.1183949,2.7717366.2037754,6.1389194.2037754s5.9265566-.0853806,6.1388998-.2038155c.002142-.4300175.0031109-.8662987.0040817-1.3056889.0072327-3.2693768.0147076-6.6500759.5007706-8.9636307.6959801-3.3127337,2.467205-6.2356348,4.1080761-8.6579275.0578232-.085361.0710373-.1938958.0353966-.2903285l-.3071785-.8304763c-.0232353-.0627127-.0635204-.1169195-.1165352-.1567006-1.5917339-1.1951752-3.2178574-2.0863235-4.971344-2.7243588-.0433979-.0157793-.0928574-.0133142-.1356888.0068289-.6873722.3230383-1.3847275.5262681-2.2249622.7583894-1.1747894.3245537-2.1383076.465394-3.032547.4430487-.8920374.0222847-1.8556976-.1185155-3.0304461-.4430487-.8402758-.2321213-1.5376692-.4353511-2.2249823-.7583895-.0428524-.0201432-.0922709-.022608-.1357088-.0068289-1.7534256.6380153-3.3795676,1.5291637-4.971343,2.7243589-.0530348.0397811-.0933213.0939879-.1165152.1567006l-.3071783.8304768c-.0356799.0964527-.0224464.2049875.0353971.2903285,1.6408703,2.4223123,3.4121158,5.3452134,4.1080353,8.657927.486083,2.3137569.4935584,5.6947384.5007911,8.9643993.0009699.4391499.0019193.8751869.0040617,1.3049603ZM18.8717804,24.2852154v.0000401-.0000401Z"/>
      <path d="M12.7250013,24.6219711c-2.9967871,0-5.9935131-.0754814-6.1962376-.2264442-.0104856-.0077991-.0166683-.0200825-.0166683-.0331745v-.0443268c0-.0157986.0089707-.0301838.0231533-.0371342.0141425-.0069504.031033-.0052128.043539.0044041.1565795.1211414,2.7414513.2090282,6.1462736.2090282s5.9896545-.0878868,6.1461525-.2090282c.0125256-.0096169.029417-.0114346.04356-.0044041.014183.0069504.0231533.0213356.0231533.0371342v.0443268c0,.013092-.0061817.0253754-.0166473.0331745-.2026443.1509628-3.1995115.2264442-6.1962786.2264442Z"/>
    </g>
  </g>
  <g>
    <path class="st0" d="M13.2529058,14.0482817h-1.055809c-.3088551,0-.5601091-.2512541-.5601091-.5601091,0-.308835.2512541-.5600891.5601091-.5600891.0353966,0,.064208-.0288105.064208-.064208v-.2846107c0-.2556791.2080183-.4636974.4636974-.4636974s.4636974.2080183.4636974.4636974v.2846107c0,.0353966.0288105.064208.064208.064208.3088551,0,.5601091.2512541.5601091.5600891,0,.3088551-.2512541.5601091-.560111.5601091ZM12.7250013,12.1983223c-.2100592,0-.3809423.1708832-.3809423.3809423v.2846107c0,.0810375-.0659246.1469622-.1469622.1469622-.2632151,0-.477355.2141399-.477355.477335,0,.2632151.2141399.477355.477355.477355h1.055809c.2632151,0,.477355-.2141399.477355-.477355,0-.263195-.2141399-.477335-.477355-.477335-.0810375,0-.1469622-.0659246-.1469622-.1469622v-.2846107c0-.2100592-.1708832-.3809423-.3809423-.3809423Z"/>
    <path d="M13.1581306,13.7912083h-.8662577c-.1598721,0-.2899446-.1300716-.2899446-.2899446s.1300716-.2899446.2899446-.2899446h.8662577c.1598721,0,.2899446.1300716.2899446.2899446s-.1300716.2899446-.2899446.2899446ZM12.291873,13.2940741c-.1142521,0-.2071896.0929375-.2071896.2071896s.0929375.2071896.2071896.2071896h.8662577c.1142521,0,.2071896-.0929375.2071896-.2071896s-.0929375-.2071896-.2071896-.2071896h-.8662577Z"/>
  </g>
</svg>