<?xml version="1.0" encoding="UTF-8"?>
<svg id="_图层_1" xmlns="http://www.w3.org/2000/svg" version="1.1" xmlns:xlink="http://www.w3.org/1999/xlink" viewBox="0 0 25.4500008 30.2600002">
  <!-- Generator: Adobe Illustrator 29.6.0, SVG Export Plug-In . SVG Version: 2.1.1 Build 207)  -->
  <defs>
    <style>
      .st0 {
        opacity: .05;
      }

      .st1 {
        opacity: .1;
      }

      .st1, .st2 {
        fill: #d0d5d9;
      }

      .st3 {
        fill: url(#_未命名的渐变_871);
      }

      .st4 {
        fill: url(#_未命名的渐变_87);
      }

      .st5 {
        fill: url(#_未命名的渐变_872);
      }

      .st6 {
        opacity: .5;
      }
    </style>
    <linearGradient id="_未命名的渐变_87" data-name="未命名的渐变 87" x1="2.1397583" y1="7.5329925" x2="23.3102342" y2="7.5329925" gradientUnits="userSpaceOnUse">
      <stop offset="0" stop-color="#0c1219"/>
      <stop offset=".0580587" stop-color="#11171e"/>
      <stop offset=".1319614" stop-color="#21272d"/>
      <stop offset=".2144374" stop-color="#3b4147"/>
      <stop offset=".303147" stop-color="#5f656b"/>
      <stop offset=".396862" stop-color="#8e9398"/>
      <stop offset=".4933913" stop-color="#c6cbd0"/>
      <stop offset=".5079365" stop-color="#d0d5d9"/>
      <stop offset=".596224" stop-color="#9ca1a6"/>
      <stop offset=".6953364" stop-color="#696e74"/>
      <stop offset=".7886521" stop-color="#40464c"/>
      <stop offset=".873364" stop-color="#232930"/>
      <stop offset=".946586" stop-color="#12181f"/>
      <stop offset="1" stop-color="#0c1219"/>
    </linearGradient>
    <linearGradient id="_未命名的渐变_871" data-name="未命名的渐变 87" x1="10.2598748" y1="22.9574179" x2="10.2598748" y2="10.5810029" xlink:href="#_未命名的渐变_87"/>
    <linearGradient id="_未命名的渐变_872" data-name="未命名的渐变 87" x1="15.1901081" y1="22.9574179" x2="15.1901081" y2="10.5810029" xlink:href="#_未命名的渐变_87"/>
  </defs>
  <g class="st6">
    <path class="st4" d="M12.7249759,10.9921024c-4.7759845,0-9.6555418-5.7192625-10.5852176-6.8657623l.0646568-.0524574c.9255279,1.1413557,5.7823131,6.8349385,10.5205607,6.8349385,4.7380443,0,9.5950328-5.6935828,10.5206014-6.8349385l.0646568.0524574c-.9297164,1.1464998-5.8094364,6.8657623-10.5852582,6.8657623Z"/>
    <g class="st6">
      <path class="st3" d="M10.6888958,22.9574179l-.0831999-.0028465c.1751427-5.1413565-.095196-9.1826727-.8264281-12.3548628l.0811667-.0187057c.7328994,3.1793471,1.0038888,7.2276982.8284614,12.3764151Z"/>
      <path class="st5" d="M14.7610967,22.9574179c-.1754681-5.1486762.0955213-9.1970477.8284614-12.3764151l.0811667.0187057c-.7313135,3.1722104-1.0016115,7.2135266-.8264281,12.3548628l-.0831999.0028465Z"/>
    </g>
  </g>
  <g class="st0">
    <path class="st2" d="M18.2063704,23.3134778c-.0286279,0-.0570119-.0005693-.0849485-.0017689-.6983344-.0300919-.7064267-.69378-.7064267-.7004896-.0020332-.0495499-.1951091-5.1655317.7788505-9.0888796.3144192-1.2664402.8457032-2.5345274,1.4960126-3.5707242.5241676-.835171,1.0657804-1.4171842,1.3477899-1.4482723.0706345-.007645.1299643.0122604.1766067.0594924.1497273.1517606.1028816.5461062.1008077.5628397l-.0008946.0074416-.0037005.0079296c-.3138906.6024675-.5946395,1.1995672-.8344797,1.774769l-.0017892.0042495c-.0391194.0939761-.0780762.189599-.116301.285527l-.020861.0530064c-.0313931.0794588-.0624203.1591005-.0927968.2389863l-.0294412.0785235c-.0268793.0716308-.0533927.1433633-.0794181.2153194-.0087836.0242768-.0174045.0485943-.0260254.0729118l-.007767.0218369c-.0237888.0669747-.0472117.1340918-.0702279.2013715-.0119554.0350529-.0238702.0701669-.0356223.1053215-.0215116.0642299-.0426166.128602-.0633962.1931369-.0121181.0375335-.0241548.075067-.0359882.1127021-.0197224.0627253-.0389974.1256538-.0580285.1886841l-.0040665.01346c-.0104508.034565-.0209016.0691096-.0311085.1037559-.0184211.0625626-.0361916.1253489-.0538807.1881758l-.0095969.034016c-.0079296.028018-.0158592.0560359-.0235448.0841555-.0175265.0641485-.0343616.1285817-.0511562.1930352l-.0101662.0386924c-.006669.0253544-.013338.0507088-.019763.0761446-.0176891.0699839-.0344836.1402931-.0512375.2106023l-.0095155.0394244c-.0047984.0196614-.0095969.0393227-.0141513.0590858-.0246021.1061755-.0477403.2108057-.0688046.3109424-.0086616.0411526-.0170792.0838912-.0254154.1274634-.4188055,2.1015096-.4638619,5.064907-.4741501,7.9200753-.0010573.1072531-.0018299,1.0895286-.0018299,1.0994508l-.0000407.033467-.0326944.0071773c-.0174451.0038225-.4013603.0869614-.7508325.0869614ZM21.0661135,8.5850384c-.0062624,0-.0126874.000366-.0193564.0010979-.4571522.0504039-2.0581204,2.0803843-2.7720701,4.956251-.9710724,3.9116568-.7784845,9.0160492-.7764513,9.0671647.000122.0257001.0089869.5923216.6267646.618957.3021792.0130737.6712517-.0545923.781697-.0766122.000122-.1749801.000854-.9700761.0017892-1.0660244.0102882-2.8590111.0555073-5.8270036.4756953-7.9354669.0083363-.0437755.0169165-.0870224.0256594-.1286427.0211456-.1007061.0444058-.2058852.0691299-.3126097.0046764-.020068.0095155-.0400344.0143953-.0600211l.0094342-.0390178c.0168352-.0706752.033711-.1413504.0514815-.21168.0065063-.0257204.0132567-.0513391.020007-.0769579l.0100848-.0384688c.0168758-.0647788.0337923-.1295373.0514001-.1940112.007767-.0283433.0157372-.0566052.0237482-.0848672l.0095562-.0339143c.0177705-.0631522.0357036-.1262638.054206-.1891111.0102475-.0348496.020739-.0696179.0312711-.1043659l.0040665-.0134397c.0191124-.0632946.0384688-.1265485.0582725-.1895787.0119147-.0378181.0240328-.075555.0361509-.1132511.020861-.0648195.0421286-.129517.0637215-.1940315.0118334-.0353173.0237482-.0705939.0357849-.1058095.0230975-.067605.046683-.1350474.0705532-.2023271l.007767-.0218166c.0086616-.0244801.0173638-.0489603.026188-.0733794.0261067-.0722611.0527827-.1443189.0797434-.2162344l.0296039-.0788691c.0304578-.0802314.0616476-.1601985.0932034-.2400029l.0209423-.0532911c.0383875-.0962736.0775069-.1922829.1173582-.2879872.2410602-.5781906.5216464-1.1751887.8352117-1.7774732.0123214-.1073344.0208203-.387697-.0781982-.4879354-.0239922-.0243175-.0531894-.0362729-.0888116-.0362729Z"/>
    <path class="st2" d="M7.243622,23.3134778c-.3494722,0-.7333874-.0831389-.7508325-.0869614l-.0326944-.0071773-.0000407-.033467c0-.0099222-.0007726-.9921977-.0018299-1.0991864-.0103288-2.8556563-.0554259-5.819196-.4740688-7.9200143-.0084176-.0438975-.0168352-.0866361-.0254967-.1277684-.0210643-.1001571-.0442025-.2047873-.0688046-.3109628-.0045544-.019763-.0093529-.0394244-.0141513-.0590858l-.0095155-.0394244c-.0167538-.0703092-.0335484-.1406184-.0512375-.210582-.006425-.0254561-.013094-.0508105-.019763-.0761649l-.0101662-.0386924c-.0167945-.0644535-.0336297-.1288867-.0511562-.1930352-.0078076-.0284449-.0158186-.0568492-.0238295-.0852332l-.0093122-.0329384c-.0176891-.0628066-.0354596-.1256132-.0538807-.1881758-.0102068-.0346463-.0206577-.0691909-.0311085-.1037559l-.0040665-.0134397c-.0190311-.0630506-.0383061-.1259792-.0580285-.1887247-.0118334-.0376148-.0238702-.0751483-.0359882-.1126818-.0207796-.0645145-.0418846-.128907-.0633962-.1931369-.0117521-.0351546-.0236668-.0702686-.0356223-.1053215-.0230162-.0672797-.0464391-.1343967-.0702279-.2013918l-.0337923-.094769c-.0260254-.0719155-.0525388-.143648-.0794181-.2152788l-.0294412-.0785032c-.0303765-.0799061-.0614037-.1595478-.0927968-.2389863l-.020861-.0529657c-.0382248-.095989-.0771815-.1915916-.1169109-.2869096-.2408162-.577723-.5216058-1.1748227-.835659-1.7776968l-.0031312-.0059574-.0010573-.0066487c-.0024805-.0194784-.0493669-.4138444.1003604-.5656049.0466424-.047232.1061348-.067117.1766067-.0594924.2820095.0310881.8236223.6131013,1.3477899,1.4482723.6503094,1.0361969,1.1815934,2.304284,1.4960126,3.5707242.9740002,3.9233479.7809244,9.0393297.7788505,9.0905469.0000407.0050424-.0080516.6687305-.706386.6988224-.0279366.0011996-.0563206.0017689-.0849485.0017689ZM6.5432951,23.1518764c.1104859.0219996.4791925.0895436.781697.0766326.6177777-.0266354.6266426-.5932569.6267239-.6173507.0020739-.0527217.1946618-5.1571141-.7764513-9.0687709-.7139497-2.8758666-2.3149178-4.9058471-2.7720701-4.956251-.0446905-.0048798-.0799467.0065877-.108168.0351546-.0988965.1001571-.0904789.3800927-.0781982.4879151.3137686.6026911.5943549,1.1997095.8340324,1.7745656.0410713.0986525.0801907.1946618.1185782.2909964l.0209423.0532504c.0315558.0797841.0627456.1597512.0932034.2400029l.0296039.0788488c.0269607.0719155.0536367.1439733.0797434.2162547l.033955.0951553c.0238702.0673.0474557.1347424.0705532.2023474.0120367.0352156.0239515.0704922.0357849.1058095.0215929.0645145.0427792.1291917.0637215.1940112.0121181.0377165.0242361.0754533.0361509.1132511.0198037.0630506.0391601.1263045.0582725.1896194l.0040665.0134193c.0105322.034748.0210236.0695163.0312711.1043659.0185024.0628473.0363949.1259385.054206.1890907l.0092715.0328774c.0080516.0285873.0161439.0571949.0240328.0858838.0176078.0645145.0345243.129273.0514001.1940518l.0100848.0384688c.0067503.0256187.0135007.0512375.020007.0769782.0177705.0703092.0346463.1409844.0514815.2116596l.0094342.0390178c.0048798.0199867.0097189.039953.0143953.0600211.0247241.1067244.0479843.2119036.0691299.3126097.0087429.0416203.0173232.0848672.0257407.128968.4200254,2.107772.4652852,5.0759271.475614,7.9354059.0009353.0957043.0016673.8906987.0017892,1.0657397Z"/>
  </g>
  <path class="st2" d="M12.7250089,15.9636836c-.2732226,0-.5107101-.1091019-.635303-.2918906-.0196285-.0287655-.0121908-.0679732.0165746-.0876263.0286916-.0196039.0679732-.0122155.0876017.0165992.0995955.1460931.3030964.2368225.5311267.2368225.2280057,0,.4315066-.0907294.5311021-.2368225.0196285-.0287162.0589101-.0361539.0876017-.0165992.0287655.0196531.0362031.0588608.0165746.0876263-.1245929.1827888-.3620803.2918906-.6352783.2918906Z"/>
  <path class="st2" d="M12.7249843,19.1053253c-.1554763,0-.2819656-.1264892-.2819656-.2819409v-.7836126c0-.155501.1264892-.2819902.2819656-.2819902s.2819656.1264892.2819656.2819902v.7836126c0,.1554517-.1264892.2819409-.2819656.2819409ZM12.7249843,17.8838767c-.0859516,0-.1558704.0699434-.1558704.155895v.7836126c0,.0859516.0699188.1558458.1558704.1558458s.1558704-.0698942.1558704-.1558458v-.7836126c0-.0859516-.0699188-.155895-.1558704-.155895Z"/>
  <path class="st2" d="M12.7249843,21.8486343c-.0348239,0-.0630476-.0282236-.0630476-.0630476v-1.0443735c0-.0348239.0282236-.0630476.0630476-.0630476s.0630476.0282236.0630476.0630476v1.0443735c0,.0348239-.0282236.0630476-.0630476.0630476Z"/>
  <g>
    <path class="st1" d="M12.7249759,22.7332539c-.5996006,0-1.087414-.4878134-1.087414-1.0874343v-6.2766125c0-.5996209.4878134-1.0874343,1.087414-1.0874343.5996413,0,1.0874547.4878134,1.0874547,1.0874343v6.2766125c0,.5996209-.4878134,1.0874343-1.0874547,1.0874343ZM12.7249759,14.365054c-.5536902,0-1.0041328.4504629-1.0041328,1.0041531v6.2766125c0,.5536902.4504426,1.0041531,1.0041328,1.0041531s1.0041734-.4504629,1.0041734-1.0041531v-6.2766125c0-.5536902-.4504832-1.0041531-1.0041734-1.0041531Z"/>
    <path class="st1" d="M14.9238367,29.4351376h-4.397681c-2.2408674,0-4.063946-1.8230583-4.063946-4.0639054v-.9576937c0-.0229959.0186244-.0416406.0416406-.0416406.0175265,0,.0325317.0108371.0386721.0261677.182991.1204488,2.7706875.2075525,6.1824535.2075525s5.9994625-.0871037,6.1824535-.2075525c.0061404-.0153306.0211456-.0261677.0386721-.0261677.0230162,0,.0416406.0186448.0416406.0416406v.9576937c0,2.2408471-1.8230786,4.0639054-4.0639054,4.0639054ZM6.5454909,24.4864706v.8847616c0,2.1949164,1.7857078,3.9806241,3.9806648,3.9806241h4.397681c2.1949164,0,3.9806241-1.7857078,3.9806241-3.9806241v-.8847616c-.1563963.0486553-.6063509.1007467-1.9010734.1439733-1.12877.0376962-2.6482055.0584555-4.2784115.0584555s-3.1496415-.0207593-4.2784115-.0584555c-1.2947225-.0432265-1.7446771-.095318-1.9010734-.1439733Z"/>
    <g>
      <path class="st2" d="M23.9899848,4.7529217c-.014192,0-.0285873-.0034158-.0420066-.0105728l-.5475905-.2929483-.1065414-.2881295c-.0233822-.0631116-.0639249-.1176632-.1172769-.1576976-1.6019441-1.2028-3.2384125-2.0996187-5.0029747-2.7416936-.0119554-.0043511-.0254154-.007157-.0423319-.0088242l-.0094342-.000915-.0528234-.0320438c-.0576218-.0315558-.0871444-.0998928-.0701466-.1652816l.0021552-.0082956c.0197224-.0757989.0696586-.1396222.1406184-.1796769.0765309-.0431859.1685957-.0536774.2528936-.0285669,2.1937778.6529323,4.351242,1.92289,5.7712523,3.3971267.0663241.0688656.0782795.1748784.0290752.2577734l-.1283784.2161531c-.0165912.027957-.0460731.0435925-.0764902.0435925ZM23.4675658,4.3908841l.5196945.2780244c.0026432.0014436.0060184.0005083.007645-.0021146l.1283377-.2161327c.0301325-.0507698.0229349-.1155283-.0174858-.1574739-1.4104135-1.4643552-3.5543364-2.7260783-5.7349794-3.3750865-.0625829-.0186448-.1311842-.0108778-.1881961.021288-.0511562.0288313-.0869817.074335-.1009704.1281141l-.0021552.0082956c-.0073603.0283839.0054491.0580692.0311491.0721798l.0384688.0232805c.0196817.0025212.0370862.0065673.0529454.0123417,1.7724511.6449417,3.4159545,1.5455625,5.0245676,2.7533643.0661614.0496719.116423.1172566.1453355.1954344l.0956433.258485Z"/>
      <path class="st2" d="M1.459967,4.752942c-.0304172,0-.0598584-.0156559-.0764496-.0436129l-.1283377-.2161327c-.0492449-.0829153-.0372895-.1889281.0290346-.2577937,1.4200104-1.4742367,3.5774746-2.7441944,5.7712523-3.3971267.0842979-.0250494.1763627-.0145986.2528936.0285669.0709599.0400547.1208961.1038779.1406184.1797175l.0021552.0082143c.0169978.0654295-.0125247.1337664-.0717325.1662372l-.0512375.0311288-.0094342.000915c-.0169165.0016673-.0303765.0044731-.0423726.0088242-1.7646028.6420952-3.4010712,1.5389139-5.002934,2.7416936-.0533521.0400344-.0938947.094586-.1172769.1576976l-.1065414.2881295-.5476311.2929483c-.0133787.0071773-.0278146.0105931-.0420066.0105931ZM7.1479381.9081379c-.0231382,0-.0463171.0032938-.0687233.0099628-2.1806431.6490082-4.3245659,1.9107313-5.7349794,3.3750865-.0404207.0419456-.0476183.1067041-.0174451.1574943l.128297.2161124c.0015859.0026025.0048391.0035175.0076043.0021349l.5197352-.2780447.0956433-.258485c.0289126-.0781778.0791741-.1457625.1453355-.1954344,1.6085318-1.2077611,3.2520352-2.1084023,5.0245269-2.7533643.0158999-.0057744.0333044-.0098205.0529454-.0123214l.0369235-.0223859c.027286-.0150256.0400954-.0447108.0327351-.0731354l-.0021552-.0082143c-.0139886-.0538197-.0498142-.0993235-.1009704-.1281547-.0365982-.0206577-.0779542-.0312508-.1194728-.0312508Z"/>
    </g>
    <path class="st1" d="M12.7233493,24.6448392c-1.5965764,0-3.0906778-.0199867-4.2138767-.0564019-1.9830534-.0642908-2.0214409-.1505406-2.0420579-.196878l-.0035378-.0079906-.0000407-.0087429c-.0022366-.4384872-.0032125-.8835417-.0041885-1.3318087-.007279-3.2861325-.0148019-6.6841539-.502168-9.0041344-.6974398-3.3196809-2.4749333-6.2524171-4.1216899-8.6834122-.0731964-.1081274-.0899503-.2455943-.0447311-.3677916l.3091328-.8357607c.0288719-.0781372.0791335-.1457219.1453355-.1954344,1.6085318-1.2077814,3.2520759-2.1084023,5.0245269-2.753344.0643722-.0234229.1374059-.0198444.2004768.0097799.685769.3222879,1.3841441.5257739,2.2258622.7583148,1.1741111.3243821,2.1361152.4652039,3.0275255.4428789.8937688.0221216,1.8555697-.1185172,3.0296808-.4428789.8416774-.2325206,1.5400118-.4359863,2.2258622-.7583148.0630709-.0296445.1361047-.0331824.2004768-.0097799,1.7724511.6449417,3.4159951,1.5455625,5.0245269,2.753344.0662021.0497126.1164636.1172972.1453355.1954547l.3091328.8357403c.0452191.1221973.0284653.2596846-.0447718.3677916-1.6467566,2.4309951-3.4242501,5.3637313-4.1216492,8.6834122-.4873661,2.3198789-.4948891,5.7177376-.502168,9.0037278-.000976.4484093-.0019519.8935858-.0041885,1.3322153l-.0000407.0087226-.0035378.0079703c-.020373.0458494-.0582725.1311639-1.9948462.1953734-1.1106742.0368219-2.6023764.0573982-4.200376.0579268-.0212676.0000203-.0427792.0000203-.0640062.0000203ZM6.5470362,24.356425c.2137335.1191882,2.7893525.2051329,6.1779397.2051329,3.3886278,0,5.9642469-.0859448,6.1779804-.2051126.0021552-.4327534.0031312-.8718302.0041071-1.3140179.007279-3.290199.0148019-6.6924088.5039573-9.0206646.7003677-3.3337915,2.4828629-6.2752909,4.1341739-8.7130161.0582318-.0859041.0715292-.1951091.0356629-.2921553v-.0000203l-.3091328-.8357607c-.0233415-.0631116-.0638842-.1176429-.1172769-.1577179-1.6018628-1.2027797-3.2383312-2.0995984-5.0029747-2.7416732-.0436332-.0158999-.0934474-.013399-.136552.0068723-.6918281.3251141-1.393619.529637-2.2391189.7632149-1.182244.3266186-2.1518118.4682537-3.0518837.4458475-.8978353.0226096-1.8674844-.1192288-3.0497284-.4458475-.8455812-.2335982-1.5473721-.4381212-2.2391189-.7632149-.0431046-.0202713-.0928781-.0227722-.136552-.0068723-1.7646435.6420748-3.4011119,1.5388935-5.0029747,2.7416732-.0533927.040075-.0939354.0946064-.1172769.1577179l-.3091328.8357607c-.0358662.0970462-.0225689.2062716.0356223.292196,1.651311,2.4376845,3.4338063,5.3791839,4.1342146,8.7129957.4891147,2.3283575.4966783,5.73073.5039573,9.0210713.000976.4420657.0019519.8810001.0041071,1.3135909ZM6.5391066,24.3511183h0Z"/>
  </g>
  <circle class="st2" cx="12.7249843" cy="16.9166488" r=".0907871"/>
</svg>