<?xml version="1.0" encoding="UTF-8"?>
<svg id="_图层_1" xmlns="http://www.w3.org/2000/svg" version="1.1" xmlns:xlink="http://www.w3.org/1999/xlink" viewBox="0 0 25.4500008 30.2600002">
  <!-- Generator: Adobe Illustrator 29.6.0, SVG Export Plug-In . SVG Version: 2.1.1 Build 207)  -->
  <defs>
    <style>
      .st0 {
        opacity: .05;
      }

      .st1 {
        fill: url(#_未命名的渐变_102);
      }

      .st2 {
        fill: url(#_未命名的渐变_101);
      }

      .st3 {
        opacity: .1;
      }

      .st4 {
        fill: url(#_未命名的渐变_10);
      }

      .st5 {
        opacity: .5;
      }
    </style>
    <linearGradient id="_未命名的渐变_10" data-name="未命名的渐变 10" x1="2.1397276" y1="7.5329534" x2="23.3102408" y2="7.5329534" gradientUnits="userSpaceOnUse">
      <stop offset="0" stop-color="#fff"/>
      <stop offset=".0494983" stop-color="#f9f9f9"/>
      <stop offset=".112485" stop-color="#e9e9e9"/>
      <stop offset=".1828142" stop-color="#cfcfcf"/>
      <stop offset=".2584776" stop-color="#ababab"/>
      <stop offset=".3384247" stop-color="#7c7c7c"/>
      <stop offset=".4220345" stop-color="#434343"/>
      <stop offset=".5079365" stop-color="#000"/>
      <stop offset=".5693566" stop-color="#2f2f2f"/>
      <stop offset=".6577741" stop-color="#6d6d6d"/>
      <stop offset=".7426203" stop-color="#a1a1a1"/>
      <stop offset=".8214789" stop-color="#cacaca"/>
      <stop offset=".8930453" stop-color="#e7e7e7"/>
      <stop offset=".9548972" stop-color="#f8f8f8"/>
      <stop offset="1" stop-color="#fff"/>
    </linearGradient>
    <linearGradient id="_未命名的渐变_101" data-name="未命名的渐变 10" x1="10.2598878" y1="22.9574061" x2="10.2598878" y2="10.5809895" xlink:href="#_未命名的渐变_10"/>
    <linearGradient id="_未命名的渐变_102" data-name="未命名的渐变 10" x1="15.19011" y1="22.9574061" x2="15.19011" y2="10.5809895" xlink:href="#_未命名的渐变_10"/>
  </defs>
  <g class="st3">
    <path class="st4" d="M12.7250045,10.9920694c-4.7760132,0-9.6555996-5.7192726-10.585277-6.8657744l.0646976-.0524575c.9255093,1.1413577,5.7823437,6.8349506,10.5205794,6.8349506,4.7383373,0,9.5950904-5.6935929,10.5205794-6.8349506l.0646569.0524575c-.9296367,1.1465018-5.8091214,6.8657744-10.5852363,6.8657744Z"/>
    <g class="st5">
      <path class="st2" d="M10.6889208,22.9574061l-.0832407-.0028465c.1751837-5.141325-.0951352-9.1826483-.8264093-12.3548643l.0811668-.0187058c.7329007,3.179373,1.0039109,7.2277313.8284832,12.3764166Z"/>
      <path class="st1" d="M14.7610883,22.9574061c-.1754277-5.1486853.0955621-9.1970639.8284628-12.3764166l.0811668.0187058c-.7312334,3.1721957-1.0015727,7.2134987-.8264296,12.3548643l-.0832001.0028465Z"/>
    </g>
  </g>
  <g class="st0">
    <path d="M18.2063681,23.3134666c-.028628,0-.057012-.0005286-.0849487-.0017486-.698295-.0301326-.7063873-.6937812-.7063873-.7004909-.0020332-.0495297-.1951094-5.1655205.7788518-9.0888957.3144198-1.2664425.8457047-2.5345319,1.4960153-3.5707305.5241686-.8351725,1.0657823-1.4171867,1.3477923-1.4482749.070594-.0076856.1300052.0122808.176607.0594925.1497276.1517608.1028818.5461072.1008079.5628204l-.0008946.007462-.0037412.0079296c-.3141758.6030582-.5949252,1.2001793-.8344406,1.7747721-.0409494.0982257-.0798656.1938692-.1181311.289777l-.0208203.0530065c-.0314338.0794792-.062461.1591211-.0928376.239007l-.0294413.0785033c-.0268794.0716106-.0533928.1433432-.0793776.2152995-.0113861.0315355-.0226096.063132-.0337924.0947285-.0238295.0670155-.0472118.1341123-.070228.2014125-.0119961.0350733-.0238702.0701873-.0356223.1053217-.0215116.06423-.0426573.1286023-.0633963.1931169-.0121181.0375336-.0241549.0750875-.0359883.1127227-.0197631.0627457-.0389975.1256744-.0580693.1887047l-.0085396.028323c-.0089462.0296039-.0178925.0592079-.0266354.0888728-.0183398.0625424-.036151.1253287-.0538401.1881558l-.007401.0261271c-.0086616.0306612-.0173638.0613021-.0257408.092065-.0175672.0641486-.0344024.1285819-.0511562.1929949l-.0107355.0409087c-.0065064.0246428-.0129721.0492857-.0192344.0740098-.0176485.069923-.034443.140212-.0511969.2105417v.0000203l-.0097189.0401361c-.0047578.0194174-.0094749.0388552-.0139887.0583742-.0253748.1096728-.0478624.2113753-.0688047.310943-.0086209.0411121-.0170385.0839117-.0254155.1275043-.4187249,2.10131-.4638221,5.0647939-.4741509,7.9200689-.0010166.1072329-.0018299,1.0895305-.0018299,1.0994527l-.0000407.0334671-.0326945.007157c-.0174452.0038225-.401361.0869412-.7508338.0869412ZM21.0661569,8.5850215c-.0062624,0-.0126874.000366-.0193564.0010979-.4571531.0503836-2.058124,2.080388-2.772075,4.9562597-.9711554,3.9119891-.7784859,9.0160651-.7764526,9.0671807.000122.0257001.0089869.5923227.626725.6189581.302505.0131347.6712123-.0545721.7816984-.0766124.0001627-.1749804.0008946-.9700575.0017892-1.0660263.0103288-2.8590975.0555887-5.8271765.4756962-7.9354809.0083769-.0437959.0169572-.0870429.0256595-.1286226.0210237-.1001369.0436333-.2023884.0691301-.3126306.0045951-.0198444.0094342-.0396075.0142733-.0593502l.0095969-.0396685c.0168352-.0706957.0337111-.1413507.0514409-.2116803.0063437-.0250292.0128907-.049916.0194784-.0748231l.0106542-.0406444c.0168352-.0647586.0337517-.1295172.0514002-.1940115.0084583-.0309662.0172012-.0618714.0259441-.0927563l.0073603-.0260458c.0177705-.0630914.035663-.126203.0541248-.1890504.0088242-.0298886.0178112-.0596958.0267981-.0894828l.0085803-.0283027c.0191531-.0633557.0384688-.1266097.0583132-.18964.0119148-.0377979.0240329-.0755551.036151-.1132513.020861-.0647993.0421287-.1294969.0637217-.1940115.0118334-.0353377.0237075-.0706143.035785-.1058503.0230976-.0675848.0466425-.135007.0705533-.2023071.0112641-.0317185.0224876-.0634777.0339551-.0951555.0260661-.0722613.0527422-.1443192.0797029-.2162551l.0296039-.0788896c.0305392-.0802315.0616478-.1601988.0932443-.2400033l.0209017-.0532098c.0384282-.0963551.077507-.1923646.1173991-.288069.240776-.5776224.5214034-1.1747231.8352945-1.777639.0121588-.105342.0210237-.3871894-.0782796-.4877533-.0239922-.0243175-.0531895-.036273-.0888118-.036273Z"/>
    <path d="M7.2436206,23.3134666c-.3494931,0-.7333887-.0831187-.7508338-.0869412l-.0327148-.007157-.0000203-.0334671c0-.0099222-.0008133-.9922198-.0018299-1.0992087-.0103085-2.8555597-.0554057-5.8190436-.4740899-7.9200283-.0083973-.0438773-.0168352-.0866566-.0254765-.1277686-.0210643-.1002183-.0435519-.2019411-.0687641-.3109836-.0045545-.0196207-.0093122-.0391601-.0140903-.0586996l-.0096172-.0398108c-.0167539-.0703093-.0335484-.1405984-.0512376-.210562-.0063844-.0253138-.0130127-.0505259-.0196614-.0757381l-.0102678-.0391398c-.0167945-.0644333-.0336094-.1288666-.0511359-.1930152-.0079093-.028872-.0160626-.0576829-.0242159-.0864939l-.0089462-.0316982c-.0176892-.0628067-.0355003-.1256134-.0539011-.1881558-.0101865-.0346464-.0206374-.0692114-.0310882-.1037561l-.0040665-.0134397c-.0190311-.0630304-.0382859-.1259794-.0580286-.1887047-.0118334-.0376556-.0239109-.0752094-.0359883-.112743-.0207797-.064474-.0418847-.1288666-.0633963-.1930965-.0117724-.0351343-.0236262-.0702483-.0356223-.1053014-.0229959-.0673205-.0464595-.1344376-.070228-.2014125l-.0029482-.0083159c-.0102475-.0288313-.0204747-.0576626-.0308442-.0864329-.0259848-.0719359-.0525592-.1436889-.0794182-.2152995l-.0294413-.078483c-.0303766-.0799266-.0613834-.1595481-.0927969-.239007l-.020861-.0530675c-.0382249-.0958875-.0771614-.1915106-.1168908-.2868084-.2408776-.5777647-.521627-1.1748858-.8356605-1.7777l-.0040868-.0119554c-.0026025-.020129-.0494687-.4144957.1002589-.5662566.0466425-.0472524.1060537-.0672798.176607-.0594925.28201.0310882.8236441.6131024,1.3477923,1.4482749.6503309,1.0361987,1.1816158,2.3042881,1.4960153,3.5707305.9739613,3.9233752.7808851,9.039366.7788112,9.0905629.0000407.0050424-.0080313.6686911-.7063466.6988236-.0279367.0012199-.056341.0017486-.084969.0017486ZM6.5433127,23.1519056c.1104454.0219996.4793967.0897471.7816984.0766124.6177178-.0266354.626603-.593258.6266844-.6173721.0020942-.0527015.1946621-5.1570622-.776412-9.0687666-.7139306-2.8758717-2.3149219-4.9058761-2.772075-4.9562597-.0445482-.0049611-.0799672.0065877-.1081886.035175-.0988763.1001369-.0904791.3799917-.0781983.4878549.3137488.6026718.5943356,1.199671.8340339,1.7746094.0410917.0986323.0801909.1946621.1185987.2909562l.0209423.0532911c.0315558.0797639.0626847.1597514.0931833.239983l.0295836.0788693c.0269811.0719359.0536571.1439735.0797639.2162551.0104305.0289126.0207187.0578863.0310069.0868599l.0029482.0083159c.0238905.0673002.0474354.134702.0705533.2023274.0120368.0351953.0239312.070472.035785.1057893.021593.0645349.04282.1292122.0637013.1940318.0121384.0377166.0242565.0754738.036151.1132716.0198444.0630304.0391805.126264.0583132.1895994l.0040461.0134194c.0105118.034748.0210237.0695164.0312915.1043661.0184821.0628677.0363746.125959.0541451.1890911l.0089259.0315965c.0082143.0290346.0164286.0580693.0243988.0871852.0176485.0644943.0345447.1292529.0514206.1939912l.0102069.0389365c.0067097.0254765.0134194.0509733.0198851.0765514.0177705.0703093.0346464.1409643.0514816.21166l.0095359.0393635c.0048391.0198647.0096782.0397295.0142937.0596755.0253545.1095915.0479641.211843.0691301.3126102.0087633.0415797.0172825.084847.0257205.1289479.4200871,2.1079994.4653063,5.0760784.4756352,7.9354199.000915.0957248.0016469.8907612.0018096,1.0657823Z"/>
  </g>
  <path class="st3" d="M12.7250224,15.9636764c-.2732231,0-.510711-.1091021-.6353041-.2918912-.0196285-.0287655-.0121909-.0679733.0165746-.0876265.0286916-.0196039.0679733-.0122155.0876018.0165993.0995957.1460933.3030969.2368229.5311276.2368229.2280061,0,.4315073-.0907296.531103-.2368229.0196285-.0287163.0589102-.0361539.0876018-.0165993.0287655.0196532.0362032.0588609.0165746.0876265-.1245931.1827891-.362081.2918912-.6352795.2918912Z"/>
  <path d="M12.7249978,19.1053237c-.1554766,0-.2819661-.1264895-.2819661-.2819414v-.783614c0-.1555012.1264895-.2819907.2819661-.2819907s.2819661.1264895.2819661.2819907v.783614c0,.155452-.1264895.2819414-.2819661.2819414ZM12.7249978,17.883873c-.0859517,0-.1558707.0699435-.1558707.1558953v.783614c0,.0859517.0699189.155846.1558707.155846s.1558707-.0698943.1558707-.155846v-.783614c0-.0859517-.0699189-.1558953-.1558707-.1558953Z"/>
  <path class="st3" d="M12.7249978,21.8486375c-.034824,0-.0630477-.0282237-.0630477-.0630477v-1.0443753c0-.034824.0282237-.0630477.0630477-.0630477s.0630477.0282237.0630477.0630477v1.0443753c0,.034824-.0282237.0630477-.0630477.0630477Z"/>
  <g class="st3">
    <path d="M12.7250045,22.7332621c-.599622,0-1.0874363-.4878143-1.0874363-1.0874159v-6.276644c0-.599622.4878143-1.0874363,1.0874363-1.0874363.5996017,0,1.0874159.4878143,1.0874159,1.0874363v6.276644c0,.5996017-.4878143,1.0874159-1.0874159,1.0874159ZM12.7250045,14.3650473c-.5536912,0-1.0041549.4504637-1.0041549,1.0041549v6.276644c0,.5536912.4504637,1.0041345,1.0041549,1.0041345s1.0041345-.4504434,1.0041345-1.0041345v-6.276644c0-.5536912-.4504434-1.0041549-1.0041345-1.0041549Z"/>
    <path d="M14.9238692,29.4351372h-4.3977091c-2.2408511,0-4.0639329-1.8230818-4.0639329-4.0639126v-.9576954c0-.0230162.0186448-.0416407.0416407-.0416407.0175265,0,.0325318.0108168.0386722.0261881.1829913.120449,2.7707127.2075529,6.1824644.2075529,3.4117721,0,5.9994731-.0871039,6.1824644-.2075529.0061404-.0153713.0211457-.0261881.0386722-.0261881.0230162,0,.0416407.0186245.0416407.0416407v.9576954c0,2.2408307-1.8230818,4.0639126-4.0639126,4.0639126ZM6.5455086,24.4864818v.8847428c0,2.1949202,1.7857109,3.9806312,3.9806515,3.9806312h4.3977091c2.1949202,0,3.9806312-1.7857109,3.9806312-3.9806312v-.8847428c-.1563966.048635-.606352.1007266-1.9010768.1439532-1.128772.0376962-2.6482102.0584759-4.2784191.0584759-1.6302293,0-3.1496674-.0207797-4.2784191-.0584759-1.2947248-.0432266-1.7447005-.0953182-1.9010768-.1439532Z"/>
    <g>
      <path d="M23.9899927,4.752898c-.014192,0-.0285873-.0034158-.041966-.0105932l-.5476321-.2929285-.106501-.28813c-.0234229-.063132-.0639656-.1176634-.1172771-.1576979-1.6019469-1.2028225-3.2384589-2.0996427-5.0030242-2.7416984-.0119554-.0043511-.0253748-.007157-.042332-.0088242l-.0094342-.000915-.0528235-.0320438c-.0576219-.0315965-.0871039-.0999133-.0701467-.1652819l.0021552-.0082956c.0197224-.0757991.0696587-.1396224.1406594-.1796772.0765717-.0432063.1686774-.0535961.2528534-.028567,2.1938223.6529131,4.3512903,1.9228731,5.7712625,3.3971327.0663242.0688861.0782796.1748787.0290346.2577738l-.1282566.2161128c-.0166725.0279977-.0461545.0436333-.0765717.0436333ZM23.4675727,4.3908598l.5197361.2780249c.0026839.0014436.0060184.0004473.007645-.0021552l.1282566-.2160925c.0301732-.0507699.0229756-.1155285-.0174452-.1574742-1.410416-1.4643781-3.5543426-2.7261035-5.7349896-3.3750925-.0626644-.0186448-.1312251-.0108575-.1881964.021288-.0511156.0288516-.0869819.0743352-.1009706.1281143l-.0021552.0082956c-.0073603.0283637.0054491.0580693.0311899.0722003l.0384282.0232602c.0197224.0025212.0371269.0065877.0529862.0123417,1.7724135.6449225,3.4159605,1.5455653,5.0245765,2.7533692.0661209.049672.1163825.1172365.1453358.1954144v.0000203l.0956028.2584854Z"/>
      <path d="M1.4599757,4.752898c-.0304172,0-.0598992-.0156559-.0764904-.0436333l-.1283379-.2161128c-.0492043-.0829154-.0372489-.1889081.0290753-.2577738,1.4199925-1.4742596,3.5774809-2.7442196,5.7712422-3.3971327.0840947-.0250292.1762613-.0146393.2528737.028567.0709803.0400344.1209369.1038781.1406594.1797178l.0021552.0082956c.0169775.0653076-.0125044.1336447-.0717326.1661358l-.0512376.0311492-.0094342.000915c-.0169165.0016673-.0303766.0044731-.0423727.0088242-1.7645856.642076-3.4010772,1.5388963-5.0029632,2.7416984-.0533725.0400344-.0939152.0945862-.1172568.1576979l-.1065823.28813-.5475914.2929488c-.013399.007157-.0278147.0105728-.0420067.0105728ZM7.1479365.9081074c-.0231382,0-.0463171.0032938-.0687234.0099629-2.1806063.648989-4.3245329,1.9107143-5.7350099,3.3750925-.0404004.0419457-.0475778.1067043-.0174452.1574742l.1283379.2161128c.0015656.0026229.0048391.0035785.0076043.0021349l.5197361-.2780249.0956028-.2584854c.0289126-.078178.0791743-.1457628.1453765-.1954348,1.6085346-1.2077836,3.2520816-2.1084263,5.0245155-2.7533692.0159202-.0057744.0333248-.0098205.0529862-.0123417l.0368829-.0223656c.0273064-.0150256.0401158-.0447312.0327351-.0731152l-.0021552-.0083159c-.0139683-.0537385-.0498346-.0992423-.1009706-.1280939-.0365779-.0206374-.0779746-.0312305-.119473-.0312305Z"/>
    </g>
    <path d="M12.7226866,24.6448304c-1.5933463,0-3.0848275-.0198851-4.2076421-.0561987-1.9885263-.064291-2.0269748-.1506629-2.0476122-.1970614l-.0035582-.0079703-.0000407-.0087429c-.0022162-.4383659-.0032125-.8833196-.0041885-1.3314451-.0072587-3.2862807-.0147816-6.6844707-.5021893-9.0045367-.6974004-3.3196867-2.4748767-6.2524281-4.1216565-8.6834275-.0732169-.1081072-.0899707-.2455947-.0447719-.3677923l.3091334-.8357622c.0289126-.0781576.0791743-.1457221.1453561-.1954348,1.6085956-1.2078039,3.2521223-2.1084467,5.0245358-2.7533488.064352-.0233619.1373858-.0198444.2004569.0097799.6858516.3223291,1.3842076.5257951,2.2258864.7583162,1.1741538.3243827,2.1364443.465164,3.0275716.4428797.8933841.0221216,1.855512-.1185174,3.0296251-.4428797.8417195-.2325413,1.5400959-.4360277,2.2258661-.7583162.064047-.0300309.1352509-.0335077.2005179-.0097799,1.7723729.6449022,3.4159199,1.5455449,5.0245358,2.7533488.0662022.0497533.1164638.1173381.1453358.1954348l.3090927.8357622c.0452192.1221772.0284653.2596647-.0447312.3677923-1.6467595,2.4309994-3.4242561,5.3637408-4.1216565,8.6834275-.4874076,2.3199847-.4949306,5.7180527-.5022096,9.0042114-.000976.4482475-.0019519.8932824-.0041885,1.3317297l-.0000407.0087429-.0035378.0079703c-.0203324.0457478-.0581912.1309811-1.9893193.1951908-1.107423.0368016-2.5959153.0574593-4.1911932.0581099h-.0793776ZM6.5470132,24.3564767c.2137339.1191477,2.7893778.2050723,6.177971.2050723,3.3886135,0,5.9642777-.0859246,6.177971-.205113.0021552-.4325916.0031312-.8714861.0041071-1.3135526.007279-3.2903471.0148426-6.6927663.5039988-9.0211279.7003689-3.3337974,2.4828673-6.275302,4.1341812-8.7130315.0581912-.0859043.0714886-.1951298.0356223-.2921965l-.3090927-.8357622c-.0233416-.0630507-.0638843-.1176024-.1172771-.1577182-1.6019469-1.2028021-3.2384589-2.0996021-5.0029835-2.7416577-.0444466-.0161846-.0929189-.0136837-.1366335.0068927-.6917073.325074-1.3934995.5295973-2.2390822.7631959-1.1822868.3266192-2.1522223.4681529-3.0518281.4458483-.8976946.0223249-1.8674877-.1192087-3.0497338-.4458483-.8455624-.2335783-1.5473545-.4381016-2.2391432-.7632163-.043186-.0202714-.0929393-.0228129-.1365522-.0068927-1.7645856.642076-3.4010772,1.5388759-5.0030038,2.7416984-.0533725.0400751-.0939152.0946065-.1172568.1576979l-.3091334.8357622c-.035907.0970667-.0225893.2062922.0356223.2921965,1.6513139,2.4377294,3.4338327,5.3792341,4.1341812,8.7130315.4891765,2.3284429.4966995,5.7309434.5039785,9.0214532.000976.4419444.0019316.8807577.0040868,1.3132679ZM18.9108848,24.3511089h0Z"/>
    <path d="M12.7249842,24.6900089c-3.0158398,0-6.0316389-.0759617-6.2356539-.2278852-.0105525-.0078483-.0167742-.0202104-.0167742-.0333858v-.0446092c0-.0158999.0090276-.0303766.0233009-.0373709.014253-.0069537.0312305-.0052458.0438163.0044325.1575759.1219129,2.7588996.2103587,6.1853923.2103587,3.4264724,0,6.0277554-.0884458,6.18525-.2103587.0126061-.0096375.0296446-.0114675.0438366-.0044325.0142733.0069943.0233009.021471.0233009.0373709v.0446092c0,.0131754-.0062217.0255375-.0167539.0333858-.2039337.1519235-3.2198345.2278852-6.2357149.2278852Z"/>
  </g>
  <circle cx="12.7249978" cy="16.9166433" r=".0907872"/>
</svg>