<?xml version="1.0" encoding="UTF-8"?>
<svg id="_图层_1" xmlns="http://www.w3.org/2000/svg" version="1.1" xmlns:xlink="http://www.w3.org/1999/xlink" viewBox="0 0 25.4500008 30.2600002">
  <!-- Generator: Adobe Illustrator 29.6.0, SVG Export Plug-In . SVG Version: 2.1.1 Build 207)  -->
  <defs>
    <style>
      .st0 {
        opacity: .05;
      }

      .st1, .st2 {
        fill: #d0d5d9;
      }

      .st1, .st3 {
        opacity: .1;
      }

      .st4 {
        fill: url(#_未命名的渐变_871);
      }

      .st5 {
        fill: url(#_未命名的渐变_87);
      }

      .st6 {
        fill: url(#_未命名的渐变_872);
      }

      .st7 {
        fill: url(#_未命名的渐变_873);
        opacity: .3;
      }

      .st8 {
        opacity: .5;
      }
    </style>
    <linearGradient id="_未命名的渐变_87" data-name="未命名的渐变 87" x1="2.1397409" y1="7.5329675" x2="23.3102422" y2="7.5329675" gradientUnits="userSpaceOnUse">
      <stop offset="0" stop-color="#0c1219"/>
      <stop offset=".0580587" stop-color="#11171e"/>
      <stop offset=".1319614" stop-color="#21272d"/>
      <stop offset=".2144374" stop-color="#3b4147"/>
      <stop offset=".303147" stop-color="#5f656b"/>
      <stop offset=".396862" stop-color="#8e9398"/>
      <stop offset=".4933913" stop-color="#c6cbd0"/>
      <stop offset=".5079365" stop-color="#d0d5d9"/>
      <stop offset=".596224" stop-color="#9ca1a6"/>
      <stop offset=".6953364" stop-color="#696e74"/>
      <stop offset=".7886521" stop-color="#40464c"/>
      <stop offset=".873364" stop-color="#232930"/>
      <stop offset=".946586" stop-color="#12181f"/>
      <stop offset="1" stop-color="#0c1219"/>
    </linearGradient>
    <linearGradient id="_未命名的渐变_871" data-name="未命名的渐变 87" x1="10.2598888" y1="22.9573966" x2="10.2598888" y2="10.5809989" xlink:href="#_未命名的渐变_87"/>
    <linearGradient id="_未命名的渐变_872" data-name="未命名的渐变 87" x1="15.1901142" y1="22.9573966" x2="15.1901142" y2="10.5809989" xlink:href="#_未命名的渐变_87"/>
    <linearGradient id="_未命名的渐变_873" data-name="未命名的渐变 87" x1="12.2163069" y1="14.2313963" x2="13.2336559" y2="14.2313963" xlink:href="#_未命名的渐变_87"/>
  </defs>
  <g>
    <g class="st8">
      <path class="st5" d="M12.7250017,10.9920782c-4.7760059,0-9.6555848-5.7192639-10.5852608-6.865764l.0646975-.0524574c.9255078,1.141356,5.7823348,6.8349401,10.5205633,6.8349401,4.7383504,0,9.5950961-5.6935842,10.5205836-6.8349401l.0646568.0524574c-.9296353,1.1465001-5.8091125,6.865764-10.5852405,6.865764Z"/>
      <g class="st8">
        <path class="st4" d="M10.6889211,22.9573966l-.0832406-.0028465c.1751835-5.1413171-.095135-9.1826342-.826408-12.3548455l.0811667-.0187058c.7328996,3.1793682,1.0039093,7.2277203.8284819,12.3763977Z"/>
        <path class="st6" d="M14.7611027,22.9573966c-.1754681-5.1486774.0955213-9.1970295.8284616-12.3763977l.0811667.0187058c-.7313136,3.1722112-1.0016118,7.2135283-.8264283,12.3548455l-.0831999.0028465Z"/>
      </g>
    </g>
    <path class="st7" d="M12.7250017,14.4130556c-.4828524,0-.5084915-.3547994-.5086948-.3583778l.0831593-.0047171c.0007523.0112031.0236262.2798137.4255356.2798137s.4247629-.2685902.4255356-.2800373l.0831186.0049204c-.0002033.0035988-.0258221.3583982-.5086542.3583982Z"/>
  </g>
  <g class="st0">
    <path class="st2" d="M18.2063366,23.3134566c-.0285873,0-.0569712-.0005286-.0849079-.0017486-.6983346-.0301325-.7064269-.6937801-.7064269-.7004898-.0020332-.0495296-.1951091-5.1655533.7788507-9.0888818.3143787-1.2664202.8457034-2.534528,1.496013-3.5707251.5241678-.8351712,1.0657807-1.4171845,1.3477902-1.4482727.0705532-.0077263.130005.0122604.1766067.0594924.1497274.1517606.1028816.5461064.1008077.5628195l-.0008946.007462-.0037005.0079296c-.3139313.6025083-.5946803,1.1996285-.8344799,1.7747491l-.0017892.0042698c-.0391194.0939761-.0780762.1895991-.116301.2855067l-.020861.0530267c-.0313931.0794588-.0624203.1591006-.0927968.238966l-.0294412.0785438c-.0268794.0716308-.0533927.1433633-.0794181.2153195-.0087836.0242768-.0174045.0485943-.0260254.0729118l-.007767.0218369c-.0237888.0669544-.0472117.1340715-.0702279.2013715-.0119554.035053-.0238702.0701669-.0356223.1053215-.0215116.0642299-.0426166.1286224-.0633962.1931369-.0121181.0375132-.0241548.0750467-.0359882.1126818-.0197224.0627456-.0389974.1256742-.0580285.1887045l-.0040665.01346c-.0104508.0345446-.0209016.0691096-.0311085.1037559-.0184211.0625626-.0361916.1253286-.0538807.1881555l-.0098002.0346666c-.0078483.0278146-.0157372.0556293-.0233415.0835253-.0175265.0641485-.0343617.1285817-.0511562.1930352l-.0100848.0384485c-.0067097.0254358-.0134193.0508715-.0198444.0763886-.0176891.0699839-.0344837.1402728-.0512375.2105617l-.0096375.0398921c-.0047578.019519-.0095155.0390381-.0140293.0586385-.0246835.1063991-.0478217.2110294-.0688046.3109425-.0086616.0411527-.0170792.0839116-.0254154.1274838-.4188056,2.1015101-.463862,5.0649082-.4741502,7.9200975-.0010573.1072328-.0018299,1.0894882-.0018299,1.0994104l-.0000407.033467-.0326944.007157c-.0174451.0038225-.4013604.0869818-.7508734.0869818ZM21.0661211,8.585034c-.0062624,0-.0126874.000366-.0193564.0010979-.4571524.0504039-2.0581209,2.0803848-2.7720707,4.9562521-.9710726,3.9116578-.7784847,9.0160514-.7764514,9.0671669.000122.0257001.0089869.5923218.6267647.6189571.3023012.0130127.6711706-.0546127.7816972-.0766529.000122-.1749395.000854-.9700153.0017892-1.065984.0102882-2.8590118.0555073-5.827005.4756955-7.9354688.0083363-.0437755.0169165-.0870428.0256594-.1286631.021105-.1004824.0443652-.2056616.06913-.3126097.0046358-.0199054.0094342-.0397294.0142733-.0595534l.0095562-.0394854c.0168352-.0706752.033711-.1413301.0514815-.2116597.0065063-.0257814.0132974-.0514815.0200477-.0772019l.0100442-.0382451c.0168758-.0647585.0337924-.129517.0514002-.1939909.0076856-.0281196.0156152-.0561783.0235449-.0842369l.0097595-.0345446c.0177705-.0631726.0357036-.1262638.054206-.1891111.0102475-.0348496.020739-.0696179.0312711-.1043659l.0040665-.0134397c.0191124-.0632946.0384688-.1265485.0582725-.1895991.0119148-.0378182.0240328-.075555.0361509-.1132511.0209423-.0648195.0421286-.1294967.0637216-.1940112.0118334-.0353173.0237482-.0705939.0357849-.1058095.0230975-.0676254.0466831-.1350271.0705532-.2023271l.007767-.0218166c.0086616-.0244801.0173638-.0489603.0261881-.0733591.0261067-.0722815.0527828-.1443393.0797434-.2162548l.0296039-.0788895c.0304578-.0802111.0616477-.1601782.0932035-.240003l.0209423-.0532911c.0383875-.0962533.0775069-.192283.1173583-.2879669.2410196-.5781501.5216059-1.175128.8352119-1.7774736.0123214-.1073344.0208203-.3876971-.0781982-.4879355-.0239922-.0243175-.0531894-.0362729-.0888117-.0362729Z"/>
    <path class="st2" d="M7.2436669,23.3134566c-.3495333.0000407-.7334282-.0831593-.7508734-.0869818l-.0327147-.007157-.0000203-.033467c0-.0099222-.0008133-.9921776-.0018299-1.0991664-.0103085-2.8555553-.0554056-5.8190347-.4740892-7.9200162-.0083973-.0438772-.0168352-.0866564-.0254764-.1277888-.0210033-.0999945-.0435112-.2016968-.068764-.3109832-.0044934-.0193157-.0091902-.0385908-.013887-.0578862l-.0098205-.040624c-.0167538-.0702889-.0335687-.1405981-.0512375-.2105617-.006242-.0247241-.012728-.0493873-.0192141-.0740301l-.0107151-.0408477c-.0167945-.0644129-.0336094-.128846-.0511358-.1929946-.0079093-.0288719-.0160625-.0576829-.0242158-.0864938l-.0089462-.0316981c-.0176891-.0628269-.0355003-.1256132-.053901-.1881555-.0101865-.0346463-.0206373-.0692113-.0310881-.1037559l-.0040665-.0134397c-.0190311-.0630303-.0382858-.1259792-.0580488-.1887248-.0118334-.0376352-.0238905-.0751687-.0359679-.1127022-.0207797-.0645145-.041905-.1288867-.0633962-.1931166-.0117724-.0351343-.0236465-.0702482-.0356426-.1053012-.0229755-.0673204-.0464391-.1344374-.0702076-.2014122l-.0027245-.007645c-.0103085-.0290549-.020617-.0580895-.0310881-.0870631-.0259644-.0719968-.0525388-.1437293-.0793978-.2153398l-.0294412-.0785235c-.0303765-.0798858-.0614037-.1595275-.0928171-.2389863l-.0208406-.0530471c-.0382248-.0958873-.0771612-.1915103-.1168906-.286808-.2409179-.5778655-.5216669-1.1749857-.8356796-1.7776973l-.0031108-.0059574-.0010776-.0066487c-.0024805-.0194784-.0493466-.4138445.1003808-.5656051.0466221-.0472727.1060942-.0672391.1766067-.0594924.2820096.0310881.8236428.6131014,1.3477902,1.4482727.6503299,1.0361971,1.181614,2.3042846,1.496013,3.5707251.9739598,3.9233286.7808839,9.0393522.77881,9.0905491.0000407.0050424-.0080313.66869-.7063455.6988226-.0279163.0012199-.0563409.0017486-.0849282.0017486ZM6.5433194,23.1518551c.1104249.0220403.4791316.0896656.7816972.0766529.6177169-.0266354.6266021-.5932571.6266834-.6173712.0020942-.0527014.1946618-5.157095-.7764108-9.0687528-.7139295-2.8758673-2.3149184-4.9058686-2.7720707-4.9562521-.0445685-.0050018-.0799468.0065877-.1081884.035175-.0988762.1001368-.0904789.3800725-.0781982.4878949.3137077.6025489.5943143,1.1995471.8340326,1.7745457.0410917.0986525.0801908.1946822.1185985.2909761l.020922.0532504c.0315558.0798248.0627049.1597919.0932035.240003l.0295836.0788895c.0270013.0719358.0536774.1439936.0797434.2162751.0105322.0290956.0209016.0582928.0312711.0875104l.0027042.007645c.0238905.0673.0474354.1347018.0705329.2023271.0120367.0351953.0239515.0704719.0358053.1057892.0216133.0645349.0428199.1292324.0636809.1940315.0121587.0376962.0242565.075433.0361509.1132308.0198647.0630709.0392008.1263045.0583335.1896397l.0040461.0134193c.0105118.034748.0210236.0695163.0312915.1043659.0184821.0628676.0363746.1259385.054145.1890908l.0089259.0315965c.0082143.0290346.0164285.0580692.0243988.0871851.0176485.0644942.0345446.1292527.0514205.1939909l.0106541.040624c.006547.0249275.0131144.0498549.0194377.0748637.0177501.0703296.0346463.1409641.0514815.2116393v.0000203l.0097189.040197c.0047781.01958.0095562.0391398.0141106.0588011.0253951.1098556.0480047.212107.06913.3126301.0087632.0416.0172825.0848672.0257204.128968.4200865,2.1079961.4653056,5.0760706.4756345,7.9354078.000915.0957247.0016469.8908005.0018096,1.06574Z"/>
  </g>
  <g>
    <path class="st1" d="M14.9238428,29.4351179h-4.3976821c-2.2408477,0-4.0639267-1.823079-4.0639267-4.0639064v-.9576939c0-.0230162.0186448-.0416406.0416406-.0416406.0175265,0,.0325317.0108168.0386721.0261881.1829911.1204488,2.7706881.2075525,6.1824346.2075525,3.4117668,0,5.9994639-.0871037,6.182455-.2075525.0061404-.0153712.0211456-.0261881.0386721-.0261881.0230162,0,.0416406.0186244.0416406.0416406v.9576939c0,2.2408273-1.823079,4.0639064-4.0639064,4.0639064ZM6.5455153,24.48647v.8847415c0,2.1949169,1.7857082,3.9806251,3.9806454,3.9806251h4.3976821c2.1949169,0,3.9806251-1.7857082,3.9806251-3.9806251v-.8847415c-.1563964.048635-.6063511.1007264-1.9010739.143953-1.1287296.0376962-2.6481654.0584758-4.2784126.0584758-1.6302065,0-3.1496423-.0207797-4.2783922-.0584758-1.2947228-.0432266-1.7446979-.095318-1.9010739-.143953Z"/>
    <g class="st3">
      <path class="st2" d="M23.989993,4.752896c-.014192,0-.0285873-.0033955-.041966-.0105322l-.5476313-.292989-.1065415-.2881093c-.0233822-.0631116-.0639249-.1176633-.1172769-.157718-1.6019445-1.2028206-3.2384133-2.0996192-5.0029759-2.7416739-.0119554-.0043511-.0254154-.007157-.0423319-.0088242l-.0094342-.000915-.0528234-.0320438c-.0576219-.0315965-.0871037-.0999131-.0701466-.1652816l.0021552-.0082956c.0197224-.0758193.0696586-.1396425.1406591-.1796972.0765309-.0431656.1687178-.0535961.252853-.0285466,2.1937783.6529121,4.351243,1.9228702,5.7712537,3.3971276.0663241.068886.0782795.1748785.0290346.2577734l-.1283377.2161328c-.0165912.027957-.0460731.0435925-.0764903.0435925ZM23.4675739,4.3908583l.5196946.2780448c.0026432.0014639.0060184.0004676.007645-.0021349l.1283377-.2161328c.0301325-.0507495.0229349-.115508-.0174858-.1574537-1.4104545-1.4643759-3.5543779-2.7260993-5.7349808-3.3750873-.0626236-.0186448-.1311843-.0108981-.1881961.0212676-.0511155.0288313-.0869818.0743554-.1009704.1281344l-.0021552.0082956c-.0073603.0283636.0054491.0580692.0311898.0722001l.0384281.0232602c.0196817.0025212.0370862.0065673.0529454.0123417,1.7724108.6449012,3.4159553,1.5455426,5.0245688,2.7533446.0661614.0496922.1164637.1172769.1453356.1954548l.0956433.2584647Z"/>
      <path class="st2" d="M1.4599901,4.752896c-.0304172,0-.0598787-.0156356-.0764903-.0435925l-.1283377-.2161328c-.0492246-.082895-.0372692-.1888874.0290752-.2577734,1.4199904-1.4742574,3.5774754-2.7442154,5.7712334-3.3971276.0841556-.0250291.1763221-.014619.252853.0285466.0710005.0400344.1209571.1038779.1406795.1797379l.0021552.0082956c.0169775.0653075-.0125044.1336445-.0717325.1661356l-.0512375.0311491-.0094342.000915c-.0169165.0016673-.0303765.0044731-.0423726.0088242-1.7645626.6420547-3.4010517,1.5388736-5.0029555,2.7416739-.0533724.0400547-.0939151.0946064-.1172566.157718v.0000203l-.1065821.2880889-.5475906.2929687c-.013399.007157-.0277943.0105525-.0420066.0105525ZM7.1479422.9081316c-.0231382,0-.0462967.0032938-.0687233.0099628-2.1806029.648988-4.3245263,1.9107114-5.7350011,3.3750873-.0404207.0419456-.0475777.1067041-.0174451.1574537l.1283377.2161328c.0015656.0026635.0049814.0035582.0076246.0021349l.519715-.2780448.0956027-.2584647c.0289126-.0781779.0791741-.1457626.1453559-.1954548,1.6085728-1.2078021,3.252097-2.1084231,5.0245282-2.7533446.0159202-.0057744.0333247-.0098205.0529861-.0123417l.0368829-.0223656c.0273063-.0150256.0401157-.0447312.0327351-.0731151l-.0021552-.0083159c-.0139683-.0537384-.0498346-.0992625-.1009907-.1281141-.0365779-.020617-.0779542-.0312101-.1194525-.0312101Z"/>
    </g>
    <path class="st1" d="M12.7233142,24.6448183c-1.5954788,0-3.0887876-.0199257-4.2118648-.0563206-1.9849855-.0643315-2.0233933-.150622-2.0440103-.1969797l-.0035582-.0079703-.0000407-.0087429c-.0022366-.4385279-.0032125-.8836435-.0042088-1.3319717-.0072586-3.2860723-.0147816-6.6840132-.5021682-9.003974-.6973993-3.319641-2.4748729-6.2523982-4.1216502-8.6834143-.0732168-.1081071-.0899706-.2455943-.0447718-.3677714l.3091329-.8357609c.0289126-.0781575.0791741-.1457219.1453559-.1954345,1.6085932-1.2078021,3.2521173-2.1084434,5.0245282-2.7533446.0643519-.0233619.137467-.0198444.2004769.0098002.6858302.3223083,1.3841851.525774,2.2258627.7582947,1.1741724.3243822,2.1362581.465143,3.0275669.4428791.8936471.0221013,1.8555295-.1185375,3.0296408-.4428791.8416776-.2325207,1.5400122-.4359864,2.2258627-.758315.0630303-.0296039.136064-.0332027.2004769-.0097595,1.7724515.6449215,3.415996,1.5455426,5.0245282,2.7533243.0662021.0497126.1164637.1172769.1453356.1954345l.3091329.8357609c.0452191.1221974.0284653.2596847-.0447718.3677714-1.646757,2.4310567-3.4242102,5.3638343-4.1216502,8.6834143-.4873662,2.3198795-.4948892,5.717739-.5021682,9.00373-.000976.4484095-.0019519.8936064-.0041885,1.3322157l-.0000407.0087429-.0035378.0079703c-.0203323.0457884-.0582318.1311029-1.9928948.1953125-1.1095359.0368015-2.6000998.0574185-4.1971239.0579878h-.069252ZM6.5470199,24.3564244c.2137336.1191882,2.7893736.2051127,6.1779819.2051127s5.964228-.0859245,6.1779615-.2051127c.0021552-.4327535.0031312-.8718101.0041071-1.3140385.007279-3.2901794.0148019-6.6923901.5039574-9.0206465.7003678-3.333711,2.4829042-6.2752518,4.1341749-8.7130182.0582318-.0858838.0715292-.1951091.0356629-.2921757l-.3091329-.8357609c-.0233415-.0630913-.0638842-.1176226-.1172769-.1576976-1.6018632-1.20278-3.238332-2.0995989-5.0029759-2.7416739-.0436739-.0159406-.0934474-.013399-.136552.0068723-.6918282.3251141-1.3936193.5296372-2.2391194.7632151-1.182285.3265781-2.1515277.4681115-3.0518437.4458476-.8976729.0223249-1.8675052-.1192288-3.0497292-.4458476-.8455611-.2335779-1.5473522-.438101-2.2391397-.7632151-.0431452-.0202917-.0929391-.0227722-.136552-.0068927-1.7645829.642075-3.401072,1.5388736-5.0029962,2.7416942-.0533724.040075-.0939151.0946064-.1172566.1576976l-.3091329.8357609c-.0359069.0970666-.0225892.2062716.0356223.2921757,1.6513114,2.437746,3.4338274,5.3792665,4.1341749,8.7130182.4891555,2.3283377.4966784,5.7306297.5039574,9.0209311.000976.4421064.0019519.8810817.0041071,1.3137539ZM18.9108929,24.3510973v.0000407-.0000407Z"/>
  </g>
  <g>
    <path class="st1" d="M13.2562655,14.049005h-1.0625275c-.3108205,0-.5636735-.252853-.5636735-.5636532,0-.3108205.252853-.5636735.5636735-.5636735.0356223,0,.0646162-.0289939.0646162-.0646162v-.2864217c0-.2573058.2093418-.4666476.4666476-.4666476s.4666476.2093418.4666476.4666476v.2864217c0,.0356223.0289939.0646162.0646162.0646162.3108002,0,.5636532.252853.5636532.5636735,0,.3108002-.252853.5636532-.5636532.5636532ZM12.7250017,12.1872742c-.2113954,0-.3833663.1719709-.3833663.3833663v.2864217c0,.081553-.0663444.1478974-.1478974.1478974-.2648897,0-.4803922.2155025-.4803922.4803922,0,.2648694.2155025.4803719.4803922.4803719h1.0625275c.2648897,0,.4803719-.2155025.4803719-.4803719,0-.2648897-.2154822-.4803922-.4803719-.4803922-.0815327,0-.1478974-.0663444-.1478974-.1478974v-.2864217c0-.2113954-.1719709-.3833663-.3833663-.3833663Z"/>
    <path class="st2" d="M13.1608661,13.7903166h-.8717491c-.1608898,0-.2917894-.1308996-.2917894-.2917894s.1308996-.2917894.2917894-.2917894h.8717491c.1609101,0,.2918098.1308996.2918098.2917894s-.1308996.2917894-.2918098.2917894ZM12.289117,13.290019c-.1149794,0-.2085082.0935288-.2085082.2085082s.0935288.2085082.2085082.2085082h.8717491c.1149997,0,.2085285-.0935288.2085285-.2085082s-.0935288-.2085082-.2085285-.2085082h-.8717491Z"/>
  </g>
</svg>