<?xml version="1.0" encoding="UTF-8"?>
<svg id="_图层_1" xmlns="http://www.w3.org/2000/svg" version="1.1" viewBox="0 0 25.4500008 30.2600002">
  <!-- Generator: Adobe Illustrator 29.6.0, SVG Export Plug-In . SVG Version: 2.1.1 Build 207)  -->
  <defs>
    <style>
      .st0 {
        isolation: isolate;
      }

      .st0, .st1 {
        opacity: .1;
      }
    </style>
  </defs>
  <path class="st0" d="M12.7250223,15.9636765c-.2732229,0-.5107107-.1091022-.6353045-.2918911-.0196285-.0287657-.0121908-.0679731.0165749-.0876265.0286913-.0196037.0679731-.0122156.0876017.0165997.099596.1460934.3030968.2368231.5311279.2368231.2280064,0,.4315071-.0907297.5311031-.2368231.0196285-.0287161.0589104-.0361538.0876017-.0165997.0287657.0196533.0362034.0588608.0165749.0876265-.1245928.1827888-.3620806.2918911-.6352797.2918911Z"/>
  <path class="st0" d="M12.7249975,19.1053238c-.1554766,0-.2819662-.1264896-.2819662-.2819405v-.7836132c0-.1555004.1264896-.2819901.2819662-.2819901s.2819662.1264896.2819662.2819901v.7836132c0,.1554527-.1264896.2819405-.2819662.2819405ZM12.7249975,17.883873c-.0859518,0-.1558704.0699444-.1558704.1558952v.7836132c0,.0859509.0699186.1558456.1558704.1558456s.1558704-.0698948.1558704-.1558456v-.7836132c0-.0859509-.0699186-.1558952-.1558704-.1558952Z"/>
  <path class="st0" d="M12.7249975,21.8486366c-.0348244,0-.0630474-.028223-.0630474-.0630474v-1.0443745c0-.0348244.028224-.0630474.0630474-.0630474s.0630474.028223.0630474.0630474v1.0443745c0,.0348244-.028224.0630474-.0630474.0630474Z"/>
  <g class="st1">
    <path d="M12.7250042,22.733263c-.5996218,0-1.0874367-.4878139-1.0874367-1.0874157v-6.2766438c0-.5996218.4878139-1.0874367,1.0874367-1.0874367.5996017,0,1.0874157.4878139,1.0874157,1.0874367v6.2766438c0,.5996017-.4878139,1.0874157-1.0874157,1.0874157ZM12.7250042,14.3650475c-.5536909,0-1.0041552.4504633-1.0041552,1.0041552v6.2766447c0,.5536919.4504633,1.0041351,1.0041552,1.0041351s1.0041342-.4504433,1.0041342-1.0041351v-6.2766438c0-.5536909-.4504433-1.0041552-1.0041342-1.0041561Z"/>
  </g>
  <circle cx="12.7249975" cy="16.9166431" r=".0907874"/>
</svg>