<?xml version="1.0" encoding="UTF-8"?>
<svg id="_图层_1" xmlns="http://www.w3.org/2000/svg" version="1.1" xmlns:xlink="http://www.w3.org/1999/xlink" viewBox="0 0 25.4500008 30.2600002">
  <!-- Generator: Adobe Illustrator 29.6.0, SVG Export Plug-In . SVG Version: 2.1.1 Build 207)  -->
  <defs>
    <style>
      .st0 {
        opacity: .05;
      }

      .st1 {
        fill: url(#_未命名的渐变_102);
      }

      .st2 {
        fill: url(#_未命名的渐变_101);
      }

      .st3 {
        opacity: .1;
      }

      .st4 {
        fill: url(#_未命名的渐变_10);
      }

      .st5 {
        opacity: .5;
      }
    </style>
    <linearGradient id="_未命名的渐变_10" data-name="未命名的渐变 10" x1="2.1397418" y1="7.5329634" x2="23.3102626" y2="7.5329634" gradientUnits="userSpaceOnUse">
      <stop offset="0" stop-color="#fff"/>
      <stop offset=".0494983" stop-color="#f9f9f9"/>
      <stop offset=".112485" stop-color="#e9e9e9"/>
      <stop offset=".1828142" stop-color="#cfcfcf"/>
      <stop offset=".2584776" stop-color="#ababab"/>
      <stop offset=".3384247" stop-color="#7c7c7c"/>
      <stop offset=".4220345" stop-color="#434343"/>
      <stop offset=".5079365" stop-color="#000"/>
      <stop offset=".5693566" stop-color="#2f2f2f"/>
      <stop offset=".6577741" stop-color="#6d6d6d"/>
      <stop offset=".7426203" stop-color="#a1a1a1"/>
      <stop offset=".8214789" stop-color="#cacaca"/>
      <stop offset=".8930453" stop-color="#e7e7e7"/>
      <stop offset=".9548972" stop-color="#f8f8f8"/>
      <stop offset="1" stop-color="#fff"/>
    </linearGradient>
    <linearGradient id="_未命名的渐变_101" data-name="未命名的渐变 10" x1="10.2598972" y1="22.9574068" x2="10.2598972" y2="10.5809977" xlink:href="#_未命名的渐变_10"/>
    <linearGradient id="_未命名的渐变_102" data-name="未命名的渐变 10" x1="15.1901271" y1="22.9574068" x2="15.1901271" y2="10.5809977" xlink:href="#_未命名的渐变_10"/>
  </defs>
  <g class="st3">
    <path class="st4" d="M12.724992,10.9920773c-4.776112,0-9.6555938-5.7192692-10.5852503-6.8657703l.0646976-.0524575c.9254884,1.141357,5.7822182,6.8349465,10.5205527,6.8349465,4.7381312,0,9.5950847-5.6935894,10.5206137-6.8349465l.0646569.0524575c-.9296768,1.1465011-5.8093619,6.8657703-10.5852706,6.8657703Z"/>
    <g class="st5">
      <path class="st2" d="M10.6889298,22.9574068l-.0832407-.0028465c.1751836-5.1413219-.0951351-9.1826427-.8264088-12.3548569l.0811668-.0187058c.7329002,3.1793711,1.0039103,7.227727.8284827,12.3764092Z"/>
      <path class="st1" d="M14.7611152,22.9574068c-.1754683-5.1486822.0955214-9.197038.8284623-12.3764092l.0811668.0187058c-.7313143,3.1722141-1.0016127,7.213535-.8264291,12.3548569l-.0832.0028465Z"/>
    </g>
  </g>
  <g class="st0">
    <path d="M18.2063523,23.3134671c-.028628,0-.0570119-.0005286-.0849486-.0017486-.6982946-.0301326-.7063869-.6937808-.7063869-.7004905-.0020332-.0495296-.1951093-5.165558.7788514-9.0888902.3143789-1.2664417.8457042-2.5345507,1.4960144-3.5707284.5241682-.835172,1.0657816-1.4171858,1.3477915-1.448274.0706346-.0076653.1300051.0122401.1766069.0594925.1497275.1517607.1028817.5461069.1008078.5628201l-.0018706.0100645-.0027652.0053067c-.3139723.6027121-.5947215,1.1998329-.8344401,1.774771-.0409494.098246-.0798655.1938894-.118131.2897971l-.0208203.0530065c-.0313932.0794589-.0624203.1591007-.0927969.2389662l-.0294413.0785439c-.0268794.0716106-.0534334.1433431-.0794182.2152994-.0113861.0315355-.0226096.063132-.0337924.0947285-.0237889.0669951-.0472117.1341122-.070228.2014124-.0119961.0350733-.0238702.0701873-.0356223.1053216-.0215116.0642299-.0426573.1286022-.0633963.1931168-.0121181.0375335-.0241548.0750671-.0359883.1127023-.0197631.0627457-.0389975.1256946-.0580286.1887046l-.0040665.01346c-.0104508.0345447-.0209017.0691097-.0311085.103756-.0184211.0625627-.0361916.1253287-.0538808.1881557l-.0098002.0346667c-.0078483.0278147-.0157372.0556293-.0233415.0835253-.0175672.0641689-.0343617.1286022-.0511562.1930354l-.0100849.0384485c-.0067097.0254358-.0134194.0508716-.0198444.0763887-.0176892.069984-.0344837.140273-.0512375.2105619l-.0098002.0405631c-.0047171.0192954-.0094342.0385908-.0139073.0579676-.0247648.1070905-.047903.2117209-.068764.3109428-.0086616.0411527-.0170792.0839116-.0254154.1274839-.418806,2.1015121-.4638625,5.0649129-.4741506,7.9201048-.0010573.1072329-.0018299,1.0894892-.0018299,1.0994114l-.0000407.0334671-.0326944.007157c-.0174452.0038225-.4013608.0869818-.7508741.0869818ZM21.0661394,8.5850309c-.0062624,0-.0126874.000366-.0193564.0010979-.4571528.0503836-2.0581228,2.0803867-2.7720733,4.9562567-.9710735,3.9116614-.7784854,9.0160597-.7764522,9.0671753.000122.0257001.0089869.5923223.6267247.6189577.3027895.013216.6712525-.0546127.7817386-.076653.000122-.1749396.000854-.9700162.0017892-1.065985.0102882-2.8590145.0555073-5.8270104.4756959-7.9354761.0083363-.0437756.0169165-.0870428.0256594-.1286632.0209423-.0997709.0442026-.2049502.0690894-.3125897.0045951-.0197224.0093529-.0393228.0141513-.0589435l.0097189-.0401157c.0168352-.0706753.0337111-.1413302.0514815-.2116599.0065064-.0257814.0132974-.0514815.0200477-.077202l.0100442-.0382452c.0168759-.0647789.0337517-.1295375.0514002-.1940114.0076856-.0280993.0156153-.056158.0235449-.0842166l.0097595-.0345447c.0177705-.0631726.0357036-.126264.0542061-.1891113.0102475-.0348497.020739-.069618.0312712-.104366l.0040665-.0134397c.0191124-.063315.0384282-.1265486.0582725-.1896196.0119148-.0377979.0240328-.0755347.0361509-.1132309.020861-.0647992.0421286-.1294968.0637216-.1940114.0118334-.0353376.0237075-.0706143.035785-.1058503.0230976-.0675848.0466831-.1349865.0705533-.2022866.0112641-.0317388.0224876-.063498.033955-.0951758.0260661-.0722612.0527828-.1443191.0797435-.216255l.0296039-.0788896c.0304579-.0802112.0616477-.1601783.0932035-.2400032l.0209017-.0532098c.0384282-.0963551.077507-.1923645.117399-.2880689.2409791-.5780083.5215657-1.1750681.835294-1.7776989.0121588-.1051183.0210643-.3871078-.0782796-.487692-.0239922-.0243175-.0531895-.0362729-.0888117-.0362729Z"/>
    <path d="M7.2436521,23.3134671c-.3495133.0000407-.7334086-.0831594-.7508537-.0869818l-.0327148-.007157-.0000203-.0334671c0-.0099222-.0008133-.9921785-.0018299-1.0991674-.0103085-2.855558-.0554057-5.8190401-.4740896-7.9200235-.0083973-.0438976-.0168555-.0866769-.0254764-.1278092-.0210847-.1003402-.0435926-.2020427-.0687844-.3109428-.0045138-.0194784-.0092512-.0388755-.0139887-.0582929l-.0097189-.0402174c-.0167539-.0703093-.0335484-.1406186-.0512172-.2105823-.0063844-.0252121-.0129924-.0503633-.0196207-.0755347l-.0103288-.0393228c-.0167742-.0644332-.0336094-.1288665-.0511562-.1930151-.0080516-.0294819-.0163675-.0588622-.0246835-.0882831l-.0084379-.0299089c-.0176892-.062827-.0355003-.1256133-.0539011-.1881557-.0093732-.0318405-.0189701-.0635996-.028567-.0953588l-.006608-.0218573c-.0190311-.06301-.0382858-.125959-.0580286-.188725-.0118334-.0376149-.0238905-.0751484-.0359679-.1126819-.0208-.0644942-.0418847-.1288868-.0634166-.1930964-.0117724-.035175-.0236262-.070289-.0356223-.1053216-.0229959-.0673204-.0464391-.1344172-.070228-.201392l-.0046764-.013216c-.0096579-.0271844-.0192954-.0543891-.0291159-.0815124-.0259848-.0719766-.0525388-.1437295-.0793979-.21534l-.0294413-.0785236c-.0303765-.0798858-.0614037-.1595074-.0928172-.2389866l-.0208407-.0530065c-.0382452-.0959281-.077202-.1915512-.1168907-.2868489-.2407961-.5775813-.5215454-1.1747021-.8356803-1.7777192l-.0030905-.0059167-.0010776-.0065877c-.0025009-.0195597-.0493873-.4139059.1003402-.5656666.0466221-.0472931.1060943-.0671984.1766272-.0595128.2820098.0310882.8236232.613102,1.3477915,1.448274.6503102,1.0361777,1.1816151,2.3042867,1.495994,3.5707284.973981,3.9233322.7809049,9.0393606.778831,9.0905575.0000407.0050424-.0080313.6686907-.7063665.6988232-.0279163.0012199-.056341.0017486-.0849283.0017486ZM6.5433243,23.1518655c.110425.0220403.4792541.0896657.7816776.076653.6177378-.0266354.626623-.5932576.6267043-.6173718.0020942-.0527015.194662-5.1570998-.7764318-9.0687612-.7139098-2.87587-2.3149002-4.9058528-2.772053-4.9562567-.0446702-.0048798-.0799672.0065877-.1081885.035175-.0988763.1001369-.0904993.3800321-.0781983.487875.31383.6028545.5944369,1.1998736.8340131,1.7745677.041112.0986526.0802315.1946823.1185987.2909967l.0209423.0532301c.0315558.0798045.062705.159792.0932035.2400032l.0295836.0788896c.026981.0719359.0536368.1439734.0797435.216255.0098612.027286.0195801.0546331.0292786.0820004l.0046764.0131754c.0239109.0672798.0474354.1347019.0705533.2023273.0120368.0352156.0239719.0704923.035785.1058096.0216133.0645146.04282.1291918.0637013.1940114.0121588.0376962.0242565.0754331.0361509.1132309.0198444.063071.0391805.1263046.0583132.1896399l.006608.021837c.0096579.0319625.0193157.0639046.02875.0959484.0184821.0628677.0363746.1259386.0541451.1890909l.0084379.0298276c.0083769.0296242.0167335.0592485.0248665.0889541.0176485.0644942.034565.1292528.0514205.1940114l.0102678.0390991c.0066893.0254154.0133787.0508309.0198241.076348.0177705.07035.0346463.1409846.0514815.2116599v.0000203l.0096375.0397904c.0047984.0197224.0096172.0394244.014192.0592282.0253341.1094491.047964.2117209.0691504.31261.0087429.0416203.0172825.0848876.0257204.1289682.4200869,2.1079981.4653061,5.0760753.4756349,7.9354151.000915.0957248.0016469.8908014.0018096,1.065741Z"/>
  </g>
  <path class="st3" d="M12.7250203,15.9636762c-.273223,0-.5107107-.109102-.6353037-.291891-.0196285-.0287655-.0121909-.0679733.0165746-.0876264.0286916-.0196039.0679733-.0122155.0876018.0165993.0995956.1460933.3030967.2368228.5311273.2368228.228006,0,.4315071-.0907295.5311027-.2368228.0196285-.0287162.0589102-.0361539.0876018-.0165993.0287655.0196531.0362032.0588609.0165746.0876264-.124593.182789-.3620808.291891-.6352791.291891Z"/>
  <path class="st3" d="M12.7249957,19.1053215c-.1554765,0-.2819659-.1264894-.2819659-.2819413v-.7836135c0-.1555012.1264894-.2819905.2819659-.2819905s.2819659.1264894.2819659.2819905v.7836135c0,.1554519-.1264894.2819413-.2819659.2819413ZM12.7249957,17.8838715c-.0859517,0-.1558706.0699435-.1558706.1558952v.7836135c0,.0859517.0699189.1558459.1558706.1558459s.1558706-.0698942.1558706-.1558459v-.7836135c0-.0859517-.0699189-.1558952-.1558706-.1558952Z"/>
  <path d="M12.7249957,21.8486337c-.034824,0-.0630477-.0282237-.0630477-.0630477v-1.0443747c0-.034824.0282237-.0630477.0630477-.0630477s.0630477.0282237.0630477.0630477v1.0443747c0,.034824-.0282237.0630477-.0630477.0630477Z"/>
  <g class="st3">
    <path d="M12.724992,22.7332629c-.5996013,0-1.0874153-.487814-1.0874153-1.0874153v-6.2766402c0-.5996216.487814-1.0874356,1.0874153-1.0874356.599642,0,1.0874559.487814,1.0874559,1.0874356v6.2766402c0,.5996013-.487814,1.0874153-1.0874559,1.0874153ZM12.724992,14.3650532c-.5536908,0-1.0041339.4504634-1.0041339,1.0041543v6.2766402c0,.5536908.4504431,1.0041339,1.0041339,1.0041339s1.0041746-.4504431,1.0041746-1.0041339v-6.2766402c0-.5536908-.4504838-1.0041543-1.0041746-1.0041543Z"/>
    <path d="M14.9238554,29.4351341h-4.3977065c-2.2408497,0-4.0639101-1.8230807-4.0639101-4.0639101v-.9576948c0-.0230162.0186448-.0416407.0416407-.0416407.0175265,0,.0325318.0108168.0386721.0261881.1829912.1204489,2.7706907.2075527,6.1824404.2075527,3.41177,0,5.9994695-.0871038,6.1824607-.2075527.0061404-.0153713.0211457-.0261881.0386721-.0261881.0230162,0,.0416407.0186244.0416407.0416407v.9576948c0,2.2408294-1.8230807,4.0639101-4.0639101,4.0639101ZM6.5455202,24.4864816v.8847423c0,2.1949189,1.7857098,3.9806288,3.9806288,3.9806288h4.3977065c2.1949189,0,3.9806288-1.7857098,3.9806288-3.9806288v-.8847423c-.1563965.048635-.6063516.1007265-1.9010757.1439531-1.1287306.0376962-2.6481679.0584759-4.2784165.0584759-1.630208,0-3.1496452-.0207797-4.2783962-.0584759-1.294724-.0432266-1.7446995-.0953181-1.9010757-.1439531Z"/>
    <g>
      <path d="M23.9900141,4.7528893c-.014192,0-.0285873-.0033955-.041966-.0105322l-.5476318-.2929893-.1065416-.2881095c-.0233822-.0631116-.0639249-.1176634-.1172771-.1577181-1.601946-1.2028218-3.2384163-2.0996212-5.0029805-2.7416764-.0119961-.0043511-.0254561-.007157-.0423726-.0088242l-.0094342-.000915-.0528235-.0320845c-.0576219-.0315762-.0871445-.0999132-.070106-.1652614l.0020739-.0080923c.0197631-.0760227.06974-.139846.1407406-.1799007.0766123-.0431656.1687586-.0535758.2528532-.0285263,2.1937803.6529127,4.351247,1.9228719,5.771259,3.3971307.0662835.0688454.0782389.174838.0290753.2577533l-.1283785.2161533c-.0165912.027957-.0460731.0435926-.0764903.0435926ZM23.4675944,4.3908513l.5196951.278045c.0026839.0014639.0060184.0005083.007645-.0021349l.1283379-.216133c.0300919-.0507699.0229349-.1155285-.0174858-.1574538-1.4104558-1.4643772-3.5543812-2.7261018-5.7349861-3.3750904-.062583-.0186244-.1312251-.0109185-.1881557.0212473-.0511562.0288516-.0870632.0743758-.1010518.1281752l-.0020739.0080923c-.0074416.0285466.0053677.0582319.0311085.0723425l.0384282.0233009c.0196817.0025009.0370862.0065674.0529861.0123417,1.7724125.6449018,3.4159585,1.545544,5.0245735,2.7533472.0661615.0496923.1164638.1172771.1453357.195455l.0956434.258465Z"/>
      <path d="M1.4599903,4.7528893c-.0303969,0-.0598788-.0156356-.0764903-.0435722l-.1283379-.2161533c-.0492246-.082895-.0372692-.1888876.0290753-.2577737,1.4199714-1.4742588,3.5774584-2.744218,5.7712387-3.3971307.0841556-.0250088.1763019-.0145986.2528532.0285466.0710006.0400547.1209572.103878.1406593.1797381l.0021552.0082143c.0169775.0654092-.0125247.1337463-.0717122.166217l-.0512579.0311492-.0094139.000915c-.0169369.0016673-.0303969.0044731-.0423523.0088242-1.7645845.6420553-3.4010955,1.538875-5.0030008,2.7416764-.0533521.0400547-.0938948.0946065-.1172567.1577181l-.1065619.2881095-.5476115.292969c-.0133787.007157-.0277943.0105525-.0419863.0105525ZM7.1479477.9081214c-.0231382,0-.0463171.0032938-.0687234.0099629-2.1806253.6489886-4.3245506,1.9107132-5.7350065,3.3750904-.0404207.0419457-.0475777.1067042-.0174452.1574538l.1283175.216133c.0015859.0026635.0049408.0035785.0076043.0021349l.5197561-.278045.0955824-.2584853c.0289329-.0781576.0791945-.1457424.145356-.1954346,1.6085743-1.2078032,3.2521203-2.1084251,5.0245531-2.7533472.0158796-.0057744.0332841-.0098205.0529455-.0123214l.0369236-.0224063c.027286-.0150256.0401157-.0447109.0327351-.0731152l-.0021552-.0082143c-.0139887-.0538198-.0498346-.0993236-.1009908-.1281752-.0365779-.0206373-.0779543-.0312305-.1194526-.0312305Z"/>
    </g>
    <path d="M12.7234061,24.6448301c-1.5975135,0-3.0926536-.020007-4.2158945-.0564426-1.9811038-.0642909-2.019471-.1505408-2.0400677-.1968579l-.0035582-.0079703-.0000407-.0087429c-.0022162-.4385283-.0032125-.8836444-.0042088-1.3319729-.0072587-3.2860754-.0147816-6.6840194-.5021686-9.0039823-.6974203-3.3196441-2.4748955-6.252404-4.1216744-8.6834223-.0732168-.1081072-.08993-.2455946-.0447515-.3677717l.3091129-.8357617c.0289126-.0781576.0791742-.145722.145356-.1954346,1.608554-1.2077828,3.2521-2.1084251,5.0245328-2.7533675.0643519-.0233822.1374468-.0198444.2004974.0098205.6858715.3223086,1.3841864.5257948,2.2258444.7582954,1.1741531.3243621,2.1364634.4650417,3.0275494.4428795.8931192.0220809,1.8554498-.1185173,3.0296436-.4428795.8416784-.2325005,1.5400136-.4359665,2.2259054-.7583157.0631116-.0296039.1362268-.0331621.2004771-.0098002,1.7724125.6449425,3.4159178,1.5455643,5.0245328,2.7533675.0662022.0497126.1164638.1172771.1453357.1954346l.3091332.8357617c.0452192.1221975.0284653.2596849-.0447719.3677717-1.6467585,2.4310183-3.4242541,5.3637782-4.121654,8.6834223-.487448,2.3201256-.4949303,5.7184356-.5021686,9.0047956-.000976.4480439-.0019519.8928753-.0041885,1.3311596l-.0000407.0087429-.0035378.0079703c-.020373.0458698-.0583132.1312251-1.9968004.1954346-1.1118141.0368422-2.6046973.0573779-4.2036341.0578659h-.0587605ZM6.5470248,24.3564359c.2137338.1191883,2.7893761.2051128,6.1779672.2051128,3.3886318,0,5.9642538-.0859246,6.1779876-.2051128.0021552-.432388.0031312-.8711196.0041071-1.3129418.0072383-3.2906298.0147613-6.6932502.5039579-9.0217528.7003685-3.3337547,2.4828658-6.2752779,4.1341788-8.7130262.0582319-.0858839.0715292-.1951093.035663-.292176l-.3091332-.8357617c-.0233415-.0630913-.0638843-.1176227-.1172771-.1576978-1.601946-1.2028014-3.2384163-2.0996212-5.0029805-2.7416967-.0436739-.0158796-.0934475-.0133584-.1365521.0068927-.6919102.3251348-1.3936613.5296376-2.2391621.7632158-1.1822861.326619-2.151977.4682746-3.0518466.445848-.8976127.0224063-1.8674256-.1192493-3.0497117-.445848-.8455415-.2335782-1.5472926-.438081-2.2391215-.7632158-.0431859-.020251-.0929595-.0227722-.1365928-.0068927-1.7646049.6420959-3.4010955,1.5388953-5.0029805,2.7416967-.0533724.0400751-.0939152.0946065-.1172567.1576978l-.3091129.8357617c-.0358866.0970464-.0225893.2062718.035602.2921963,1.6512926,2.437728,3.4338306,5.3792308,4.1341991,8.7130059.4891559,2.3283399.4966789,5.730635.5039579,9.0209395.000976.4421068.0019519.8810825.0041071,1.3137551ZM18.9109092,24.3511088h0Z"/>
    <path d="M12.724992,24.6900086c-3.015838,0-6.0316556-.0759617-6.2356705-.2278851-.0105525-.0078483-.0167742-.0202104-.0167742-.0333857v-.0446092c0-.0158999.0090276-.0303765.0233009-.0373709.014253-.0069537.0312305-.0052457.0438162.0044325.1575758.1219128,2.7589183.2103586,6.1854089.2103586s6.0277721-.0884864,6.1852666-.2103993c.0126061-.0096782.0296446-.0115081.0438366-.0044325.0142733.0069943.0233009.021471.0233009.0373709v.0446499c0,.0131754-.0062217.0255374-.0167539.0333857-.2039336.1519234-3.2198732.2278851-6.2357315.2278851Z"/>
  </g>
  <circle cx="12.7249957" cy="16.9166424" r=".0907872"/>
</svg>