<?xml version="1.0" encoding="UTF-8"?>
<svg id="_图层_1" data-name="图层_1" xmlns="http://www.w3.org/2000/svg" version="1.1" xmlns:xlink="http://www.w3.org/1999/xlink" viewBox="0 0 25.45 30.26">
  <!-- Generator: Adobe Illustrator 29.6.0, SVG Export Plug-In . SVG Version: 2.1.1 Build 207)  -->
  <defs>
    <style>
      .st0 {
        opacity: .3;
      }

      .st1 {
        fill: #d0d5d9;
      }

      .st2 {
        fill: url(#_未命名的渐变_471);
      }

      .st3 {
        fill: url(#_未命名的渐变_472);
      }

      .st4 {
        fill: url(#_未命名的渐变_47);
      }

      .st5 {
        opacity: .5;
      }
    </style>
    <linearGradient id="_未命名的渐变_47" data-name="未命名的渐变 47" x1="-924.84" y1="803.54" x2="-903.64" y2="803.54" gradientTransform="translate(538.25 -1088.9) rotate(-23.08)" gradientUnits="userSpaceOnUse">
      <stop offset="0" stop-color="#0c1219"/>
      <stop offset=".06" stop-color="#11171e"/>
      <stop offset=".13" stop-color="#21272d"/>
      <stop offset=".21" stop-color="#3b4147"/>
      <stop offset=".3" stop-color="#5f656b"/>
      <stop offset=".4" stop-color="#8e9398"/>
      <stop offset=".49" stop-color="#c6cbd0"/>
      <stop offset=".51" stop-color="#d0d5d9"/>
      <stop offset=".6" stop-color="#9ca1a6"/>
      <stop offset=".7" stop-color="#696e74"/>
      <stop offset=".79" stop-color="#40464c"/>
      <stop offset=".87" stop-color="#232930"/>
      <stop offset=".95" stop-color="#12181f"/>
      <stop offset="1" stop-color="#0c1219"/>
    </linearGradient>
    <linearGradient id="_未命名的渐变_471" data-name="未命名的渐变 47" x1="-916.72" y1="819.03" x2="-916.72" y2="806.61" xlink:href="#_未命名的渐变_47"/>
    <linearGradient id="_未命名的渐变_472" data-name="未命名的渐变 47" x1="-911.76" y1="819.03" x2="-911.76" y2="806.61" xlink:href="#_未命名的渐变_47"/>
  </defs>
  <g>
    <path class="st4" d="M10.41,12.42c-3.97,0-8.36-2.19-9.39-2.74v-.02c1.32.69,8.05,4.04,12.44,2.17,4.39-1.87,6.64-9.05,7.05-10.47h.02c-.41,1.43-2.66,8.62-7.06,10.49-.94.4-1.99.56-3.06.56Z"/>
    <g class="st5">
      <path class="st2" d="M16.26,23.76c-1.86-4.82-3.7-8.45-5.63-11.09h.02c1.93,2.63,3.77,6.26,5.63,11.09h-.02Z"/>
      <path class="st3" d="M20.1,22.12c-2.19-4.68-3.53-8.53-4.1-11.75h.02c.57,3.22,1.91,7.06,4.1,11.74h-.02Z"/>
    </g>
  </g>
  <g>
    <path class="st1" d="M17.73,21.93s-.02,0-.03,0c-.02,0-.03-.02-.04-.04l-.41-.96s0-.04,0-.06c0-.02.02-.03.04-.04.02,0,.04,0,.06,0,.02,0,.03.02.04.04l.41.96s0,.04,0,.06c0,.02-.02.03-.04.04,0,0-.02,0-.03,0ZM17.32,20.84s-.01,0-.02,0c-.01,0-.02.02-.03.03,0,.01,0,.03,0,.04l.41.96s.02.02.03.03c.01,0,.03,0,.04,0h0s.02-.02.03-.03c0-.01,0-.03,0-.04l-.41-.96s-.02-.02-.03-.03c0,0-.01,0-.02,0Z"/>
    <g>
      <path class="st1" d="M17.67,22.79c-.13,0-.27-.03-.4-.08-.26-.11-.47-.31-.58-.57l-2.47-5.8c-.23-.54.02-1.16.56-1.39.26-.11.55-.11.81,0,.26.11.47.31.58.57l2.47,5.8c.11.26.11.55,0,.81s-.31.47-.57.58c-.13.06-.27.09-.42.09ZM15.2,14.89c-.14,0-.28.03-.41.08-.53.22-.77.84-.55,1.37l2.47,5.8c.11.26.31.45.57.56.26.1.54.1.8,0,.26-.11.45-.31.56-.57.1-.26.1-.54,0-.8l-2.47-5.8c-.11-.26-.31-.45-.57-.56-.13-.05-.26-.08-.39-.08Z"/>
      <path class="st1" d="M17.11,30.08c-.51,0-1.02-.1-1.51-.29-1-.4-1.79-1.17-2.21-2.17l-.38-.88s0-.01,0-.01c0,0,.01,0,.01,0,0,.02.17.04,1.85-.61,1.06-.41,2.47-.99,3.97-1.63,1.51-.64,2.9-1.26,3.93-1.74,1.63-.76,1.73-.89,1.72-.91,0,0,0-.01,0-.01,0,0,.01,0,.01,0l.38.88c.42.99.43,2.09.03,3.1-.4,1-1.17,1.79-2.17,2.21l-4.06,1.73c-.51.22-1.05.33-1.59.33ZM13.04,26.75l.37.86c.42.99,1.2,1.76,2.2,2.16,1,.4,2.09.39,3.08-.03l4.06-1.73h0s0,0,0,0c2.04-.87,3-3.24,2.13-5.29l-.37-.86c-.05.06-.32.26-1.72.91-1.03.48-2.42,1.1-3.93,1.74-1.51.64-2.92,1.22-3.97,1.63-1.44.56-1.77.62-1.85.61Z"/>
      <g>
        <path class="st1" d="M21.4,1.67s0,0,0,0l-.61-.05-.2-.22c-.05-.05-.12-.09-.19-.11-1.96-.48-3.82-.67-5.71-.56-.02,0-.03,0-.05,0h0s-.05,0-.05,0c-.05,0-.09-.05-.1-.1h0c-.01-.08,0-.15.05-.21.05-.06.12-.1.2-.11,2.28-.26,4.76.06,6.65.86.08.03.12.11.11.19l-.03.25s-.03.05-.06.05ZM20.79,1.59l.6.05s.04-.01.04-.03l.03-.25c0-.07-.03-.14-.1-.17-1.88-.8-4.37-1.12-6.64-.86-.07,0-.14.05-.19.11-.04.05-.06.12-.05.18h0c0,.05.04.09.09.09h.05s.04,0,.05,0c1.89-.1,3.76.08,5.71.56.07.02.14.06.2.11l.2.21Z"/>
        <path class="st1" d="M.59,10.53s-.02,0-.03-.01l-.2-.15c-.07-.05-.09-.14-.06-.21.73-1.92,2.22-3.93,3.98-5.4.06-.05.14-.07.22-.07.07,0,.14.04.18.1h0s.03.11,0,.15l-.03.05s-.03.02-.04.03c-1.38,1.29-2.54,2.76-3.55,4.51-.04.06-.05.14-.05.21v.3s-.37.48-.37.48c-.01.01-.03.02-.04.02ZM4.46,4.72c-.06,0-.13.02-.18.06-1.76,1.46-3.25,3.48-3.98,5.39-.03.07,0,.15.06.19l.2.15s.04,0,.05,0l.38-.47v-.29c-.02-.08,0-.15.04-.22,1.01-1.75,2.17-3.22,3.55-4.51.01-.01.03-.02.04-.03l.03-.04s.03-.08,0-.12h0c-.04-.06-.1-.09-.17-.1-.01,0-.02,0-.03,0Z"/>
      </g>
      <path class="st1" d="M13.04,26.71s-.03,0-.04,0h0c-.17-.41-.35-.83-.53-1.23-1.3-3.03-2.65-6.17-4.01-8.13-1.95-2.8-4.75-4.81-7.23-6.41-.1-.07-.17-.18-.17-.3l-.04-.89c0-.08.01-.15.05-.22,1.01-1.75,2.17-3.22,3.55-4.51.04-.04.1-.06.17-.06.76.03,1.49-.06,2.36-.18,1.22-.16,2.16-.41,2.98-.78.84-.33,1.67-.84,2.63-1.61.69-.55,1.25-1.01,1.76-1.58.04-.05.1-.07.16-.08,1.89-.1,3.76.08,5.71.56.07.02.14.06.2.11l.61.65c.08.09.12.21.1.33-.57,2.9-1.05,6.31-.39,9.65.46,2.34,1.79,5.48,3.08,8.52.17.41.35.83.52,1.23h0s0,0,0,0c0,.2-3.52,1.76-5.6,2.64-2.03.87-5.44,2.27-5.86,2.27ZM13.01,26.69c.12.09,2.59-.86,5.88-2.26,3.22-1.37,5.57-2.48,5.59-2.62-.17-.41-.35-.82-.52-1.23-1.29-3.04-2.62-6.18-3.08-8.52-.66-3.35-.18-6.76.39-9.66.02-.11-.01-.23-.09-.31l-.61-.65c-.05-.05-.12-.09-.19-.11-1.96-.48-3.82-.67-5.71-.56-.06,0-.11.03-.15.07-.51.57-1.08,1.03-1.76,1.58-.96.76-1.8,1.28-2.64,1.61-.82.37-1.77.62-2.98.79-.87.12-1.6.2-2.36.18-.06,0-.11.02-.15.06-1.38,1.29-2.54,2.76-3.55,4.51-.04.06-.05.14-.05.21l.04.89c0,.11.07.22.16.28,2.48,1.6,5.28,3.61,7.24,6.41,1.37,1.96,2.71,5.09,4.01,8.13.17.4.35.82.53,1.23Z"/>
      <path class="st1" d="M15.08,16.56c-.13,0-.25-.03-.35-.1-.03-.02-.04-.07-.02-.1.01-.02.03-.03.05-.03.02,0,.04,0,.05,0,.15.09.37.1.57,0,.21-.09.36-.25.39-.42,0-.04.05-.07.09-.06.04,0,.07.05.06.09-.04.22-.22.42-.48.53-.12.05-.24.08-.36.08ZM14.77,16.35s0,0-.01,0c-.01,0-.03.01-.03.02-.02.03,0,.06.02.07.18.12.44.13.69.02h0c.25-.11.42-.3.47-.51,0-.03-.01-.06-.04-.06-.03,0-.06.01-.06.04-.04.18-.19.34-.4.43-.21.09-.44.09-.59-.01,0,0-.02,0-.03,0Z"/>
      <path class="st1" d="M16.56,19.41s-.07,0-.11-.02c-.07-.03-.13-.08-.16-.16l-.31-.72c-.03-.07-.03-.15,0-.22.03-.07.08-.13.16-.16.07-.03.15-.03.22,0,.07.03.13.08.16.16l.31.72c.03.07.03.15,0,.22-.03.07-.08.13-.16.16-.04.02-.08.02-.11.02ZM16.25,18.12s-.07,0-.11.02c-.07.03-.12.08-.15.15-.03.07-.03.14,0,.21l.31.72c.03.07.08.12.15.15.07.03.14.03.21,0,.07-.03.12-.08.15-.15s.03-.14,0-.21l-.31-.72c-.03-.07-.08-.12-.15-.15-.03-.01-.07-.02-.1-.02ZM16.56,19.29s-.04,0-.06-.01c-.04-.02-.07-.05-.09-.09l-.31-.72s-.02-.09,0-.13.05-.07.09-.09c.04-.02.09-.02.13,0,.04.02.07.05.09.09l.31.72s.02.09,0,.13c-.02.04-.05.07-.09.09-.02,0-.04.01-.06.01ZM16.25,18.25s-.04,0-.06.01c-.04.02-.06.04-.08.08s-.01.08,0,.11l.31.72s.04.06.08.08c.04.01.08.01.11,0,.04-.02.06-.04.08-.08.01-.04.01-.08,0-.11l-.31-.72s-.04-.06-.08-.08c-.02,0-.04-.01-.06-.01Z"/>
      <g class="st0">
        <path class="st1" d="M23.02,21.17c-.42,0-.6-.4-.6-.41,0-.01-.56-1.18-1.18-2.83-.58-1.52-1.34-3.77-1.67-5.87-.21-1.29-.22-2.67-.02-3.88.15-.95.42-1.71.66-1.84.05-.03.11-.03.16-.01.18.08.29.44.3.46h0c-.05.69-.08,1.35-.07,1.97h0s0,0,0,0c0,.1,0,.21,0,.31,0,.01,0,.02,0,.03v.02c0,.09,0,.18,0,.26,0,.02,0,.04,0,.05v.03c0,.09,0,.16.01.23,0,.03,0,.06,0,.09v.02c0,.08.01.15.02.21,0,.04,0,.07,0,.11,0,.07.01.14.02.2,0,.04,0,.08.01.12,0,.07.01.13.02.2v.02s0,.07.01.11c0,.07.02.13.02.2v.03s.01.06.02.09c0,.07.02.13.03.2v.04s.01.05.02.08c.01.07.02.14.04.22h0s0,.03,0,.04c0,.02,0,.04.01.06.02.11.04.21.06.31,0,.04.02.08.03.13.44,2.11,1.57,4.86,2.68,7.51.04.1.43,1.01.43,1.02h0s0,.01,0,.01c0,0-.39.27-.73.4-.11.04-.2.06-.29.06ZM20.29,6.34s-.06,0-.08.02c-.19.11-.47.73-.65,1.83-.19,1.21-.18,2.58.02,3.87.34,2.09,1.09,4.34,1.67,5.86.62,1.65,1.18,2.82,1.18,2.83.01.02.25.57.86.34.32-.12.67-.36.72-.4-.04-.09-.39-.91-.43-1.01-1.12-2.64-2.24-5.4-2.68-7.51,0-.04-.02-.09-.03-.13-.02-.1-.04-.21-.06-.32,0-.02,0-.04-.01-.06,0-.01,0-.03,0-.04h0c-.01-.08-.02-.15-.04-.22,0-.03,0-.05-.01-.08v-.04c-.02-.07-.03-.13-.03-.2,0-.03,0-.06-.01-.09v-.03c-.01-.07-.02-.13-.03-.2,0-.04,0-.07-.01-.11v-.02c0-.07-.02-.13-.02-.2,0-.04,0-.08-.01-.12,0-.07-.01-.14-.02-.2,0-.04,0-.07,0-.11,0-.07,0-.14-.01-.21v-.02s0-.06,0-.09c0-.07,0-.15-.01-.23v-.03s0-.04,0-.05c0-.08,0-.16,0-.26v-.02s0-.02,0-.03c0-.11,0-.21,0-.31h0c0-.63.02-1.29.07-1.97,0-.02-.11-.38-.28-.45-.02,0-.04-.01-.06-.01Z"/>
        <path class="st1" d="M12.53,25.61h0s-.39-.92-.43-1.02c-1.13-2.63-2.34-5.36-3.56-7.13-.03-.04-.05-.07-.07-.11-.06-.08-.12-.17-.19-.26-.01-.02-.02-.03-.04-.05,0-.01-.02-.02-.02-.03h0c-.05-.06-.09-.12-.13-.17-.02-.02-.03-.04-.05-.06l-.02-.03c-.04-.05-.08-.11-.12-.16-.02-.02-.04-.05-.06-.07l-.02-.03c-.04-.05-.08-.1-.12-.15-.02-.03-.05-.06-.07-.08h-.01c-.04-.06-.09-.11-.13-.16-.03-.03-.05-.06-.08-.09-.04-.05-.09-.1-.13-.15-.02-.03-.05-.06-.07-.08-.05-.05-.09-.1-.14-.16h0s-.04-.05-.06-.07c-.05-.05-.1-.11-.16-.17l-.02-.02s-.03-.03-.04-.04c-.06-.06-.11-.12-.18-.18l-.02-.02s-.02-.02-.02-.02c-.07-.07-.15-.15-.22-.22h0s0,0,0,0c-.45-.44-.94-.88-1.47-1.31h0s-.2-.35-.13-.54c.02-.05.06-.09.12-.11.26-.08.99.25,1.79.8,1.01.7,1.99,1.66,2.78,2.7,1.28,1.69,2.37,3.8,3.07,5.27.76,1.59,1.22,2.8,1.22,2.81,0,0,.24.59-.36.88-.33.16-.79.25-.8.25h0ZM4.86,13.52c.53.43,1.02.88,1.47,1.31h0c.07.07.15.15.22.22,0,0,.02.02.02.02l.02.02c.07.07.12.13.18.18.01.01.03.03.04.04l.02.02c.06.06.11.12.16.17.02.02.04.04.06.07h0c.05.06.1.12.14.17.02.03.05.06.07.08.05.05.09.1.13.15.03.03.05.06.08.09.04.05.09.1.13.15h.01s.05.07.07.09c.04.05.08.1.12.15l.02.03s.04.05.06.07c.04.05.08.11.12.16l.02.03s.03.04.05.06c.04.06.08.11.13.17h0s.02.02.02.03c.01.02.02.03.04.05.07.09.13.18.19.26.02.03.05.07.07.11,1.22,1.78,2.43,4.5,3.56,7.14.04.09.39.92.43,1.01.06-.01.48-.1.79-.24.59-.28.35-.85.35-.86,0-.01-.46-1.22-1.22-2.81-.7-1.47-1.8-3.58-3.07-5.27-.79-1.04-1.77-2-2.78-2.7-.92-.64-1.56-.86-1.77-.8-.05.02-.09.05-.11.09-.07.17.12.5.12.51Z"/>
      </g>
      <path class="st1" d="M13.05,26.75s-.02,0-.02,0c0,0,0,0,0,0l-.02-.04s0,0,0,0c0,0,0,0,0,0,.24.06,3.18-1.12,5.82-2.24,2.64-1.12,5.53-2.43,5.65-2.64,0,0,0,0,0,0,0,0,0,0,0,0l.02.04s0,0,0,0c-.13.22-3.02,1.53-5.66,2.65-2.57,1.09-5.44,2.24-5.81,2.24ZM13.04,26.73c.27.04,3.2-1.13,5.81-2.24,2.62-1.11,5.49-2.41,5.64-2.64v-.02c-.24.26-3.07,1.53-5.65,2.64-2.57,1.1-5.44,2.24-5.81,2.24,0,0,0,0,0,0v.02Z"/>
      <path class="st1" d="M15.81,17.46s-.08-.02-.09-.06c-.02-.05,0-.11.05-.13.05-.02.11,0,.13.05h0c.02.05,0,.11-.05.13-.01,0-.03,0-.04,0ZM15.81,17.28s-.02,0-.03,0c-.04.02-.06.07-.04.11.02.04.07.06.11.04.04-.02.06-.07.04-.11h0s-.04-.05-.08-.05Z"/>
    </g>
  </g>
</svg>